<?xml version="1.0" encoding="utf-8"?>
<!-- Generator: Adobe Illustrator 27.5.0, SVG Export Plug-In . SVG Version: 6.00 Build 0)  -->
<svg version="1.1" xmlns="http://www.w3.org/2000/svg" xmlns:xlink="http://www.w3.org/1999/xlink" x="0px" y="0px"
	 viewBox="0 0 500 500" style="enable-background:new 0 0 500 500;" xml:space="preserve">
<g id="BACKGROUND">
</g>
<g id="OBJECTS">
	<g>
		<g>
			<path style="fill:#FF669D;" d="M139.065,122.246c-0.28,3.182-0.906,6.427-1.875,9.734c-0.939,3.206-2.223,6.474-3.853,9.805
				l-13.678-4.009c-1.2,1.498-2.925,3.388-5.172,5.667c-2.244,2.281-4.92,4.352-8.025,6.217c-3.103,1.866-6.623,3.2-10.561,4.005
				c-3.933,0.805-8.257,0.518-12.968-0.863c-9.518-2.791-16.112-8.045-19.784-15.758c-3.668-7.714-3.741-17.583-0.216-29.608
				c0.705-2.407,1.441-4.638,2.209-6.698c0.768-2.06,1.662-4.084,2.678-6.071c1.018-1.986,2.177-3.989,3.472-6.001
				c1.299-2.014,2.78-4.192,4.446-6.531c2.948,1.08,5.694,2.485,8.233,4.208c2.543,1.725,4.91,3.668,7.104,5.836
				c-1.071,1.426-2.045,2.801-2.922,4.122c-0.877,1.319-1.695,2.631-2.459,3.932c-0.761,1.298-1.461,2.754-2.096,4.364
				c-0.635,1.609-1.26,3.466-1.878,5.57c-1.498,5.112-1.576,9.55-0.231,13.318c1.344,3.766,4.172,6.283,8.479,7.546
				c2.908,0.852,5.535,0.888,7.886,0.108c2.351-0.78,4.487-2.03,6.405-3.753c1.92-1.723,3.623-3.727,5.108-6.011
				c1.487-2.286,2.769-4.521,3.843-6.708L139.065,122.246z M171.117,142.09c-1.028,3.506-2.401,7.075-4.12,10.708
				c-3.882-0.484-7.678-1.271-11.387-2.359c-3.507-1.028-7.075-2.4-10.709-4.118c0.516-3.986,1.301-7.779,2.358-11.387
				c1.059-3.607,2.433-7.179,4.12-10.709c3.986,0.516,7.78,1.303,11.387,2.36c3.607,1.058,7.18,2.43,10.71,4.117
				C172.992,134.585,172.204,138.381,171.117,142.09z"/>
		</g>
		<g>
			<linearGradient id="SVGID_1_" gradientUnits="userSpaceOnUse" x1="126.211" y1="285.5544" x2="126.211" y2="162.258">
				<stop  offset="0" style="stop-color:#48D1F0"/>
				<stop  offset="0.0704" style="stop-color:#4FD2F2"/>
				<stop  offset="0.4509" style="stop-color:#6DD7F9"/>
				<stop  offset="0.7742" style="stop-color:#80DAFD"/>
				<stop  offset="1" style="stop-color:#87DBFF"/>
			</linearGradient>
			<path style="fill:url(#SVGID_1_);" d="M155.111,251.138c0,0,5.17,21.33,5.5,28.33c-4.83,4.67-13.83,7.34-28.5,5.5
				c-28.67-4.66-33.5-23.83-33.5-23.83s1.5-3.33,5.83-10c6.34-10,1.84-19.67,0.17-23.83c-1.67-4.17-5.67-14.34-8.17-23.17
				c-6.32-22.44-6.12-38.34-6.02-41.2c-0.07-0.12-0.14-0.24-0.22-0.36c2.56,0.87,5.58,0.73,8.14-0.32
				c-0.02,0.07-0.04,0.14-0.06,0.21c10.33,38,29.24,49.91,29.24,49.91l10.36,5.41c0,0,3.35-3.15,6.18-6.19
				c5.71-2.66,8.53-48.14,8.53-48.14s0-0.01-0.01-0.01c0.63,0.07,1.26,0.12,1.89,0.17c1.44,0.1,2.91,0.11,4.33-0.15
				c0.38-0.07,0.74-0.16,1.09-0.27c-0.01,0.03-0.02,0.05-0.03,0.08c4.66,34.88,1.9,62.36-3.75,75.36
				C158.281,243.638,155.111,251.138,155.111,251.138z"/>
			<path style="fill:#FFD69F;" d="M99.341,156.268c0,2.03-0.42,4.06-1,5.99c-2.56,1.05-5.58,1.19-8.14,0.32
				c-1.76-2.93-4.21-8.12-1.68-10.7c0.12-1.57,0.7-3.18,1.99-3.8c0.17-0.7,0.56-1.31,1.28-1.64c0.82-0.36,1.64-0.1,2.13,0.49
				c1.31,0.41,2.58,1.98,3.28,3.18c1.03,1.74,2,3.31,2.12,5.38C99.331,155.748,99.341,156.008,99.341,156.268z"/>
			<path style="fill:#FFD69F;" d="M160.051,162.688c-0.07,0.18-0.12,0.35-0.16,0.51c-0.35,0.11-0.71,0.2-1.09,0.27
				c-1.42,0.26-2.89,0.25-4.33,0.15c-0.63-0.05-1.26-0.1-1.89-0.17c-1.71-2.63-5.04-8.7-2.23-11.57c0.12-1.57,0.71-3.18,2-3.8
				c0.16-0.7,0.55-1.31,1.27-1.64c0.83-0.36,1.64-0.1,2.14,0.49c1.31,0.41,2.57,1.98,3.28,3.18c1.03,1.74,1.99,3.31,2.11,5.38
				C161.291,157.908,160.771,160.378,160.051,162.688z"/>
		</g>
		<g>
			<path style="fill:#E2A379;" d="M129.231,203.688c-1.24,0.17-2.02-0.42-2.02-0.42c0.2,2.7,0.27,5.41,0.19,8.12
				c0,0.1,0.03,0.18,0.05,0.27c-0.06,0.22-0.06,0.46,0.07,0.72c2.08,4.12,6.35,6.57,11,5.87c3.58-0.54,5.39-3.41,5.54-6.65
				C135.391,212.808,130.611,205.138,129.231,203.688z"/>
			<path style="fill:#FFD69F;" d="M146.811,210.778c-0.75,0.41-1.53,0.65-2.32,0.77c-0.14,0.01-0.28,0.03-0.43,0.05
				c-8.67,1.21-13.45-6.46-14.83-7.91c-1.24,0.17-2.02-0.42-2.02-0.42c-0.52-0.29-1-0.6-1.39-0.91
				c-1.63-1.29-4.342-4.466-3.532-6.766c-1.07-1.9-1.837-3.844-2.277-5.924c-0.57-1.51-0.9-3.15-0.9-4.86
				c0-7.64,6.19-13.84,13.83-13.84c7.64,0,13.84,6.2,13.84,13.84c0,0.23-0.03,0.45-0.04,0.68c0.25,2.3,0.39,4.61,0.77,6.9
				c0.62,3.66,2.54,9.91,2.63,11.75C150.371,206.778,149.521,209.338,146.811,210.778z"/>
			<g>
				
					<linearGradient id="SVGID_00000114067620551557298430000010456679313015252626_" gradientUnits="userSpaceOnUse" x1="130.8412" y1="271.1379" x2="130.8412" y2="129.1364">
					<stop  offset="0" style="stop-color:#000000"/>
					<stop  offset="0.4554" style="stop-color:#070707"/>
					<stop  offset="1" style="stop-color:#161616"/>
				</linearGradient>
				<path style="fill:url(#SVGID_00000114067620551557298430000010456679313015252626_);" d="M127.517,212.376
					c2.688-1.696,1.844-6.238-0.31-9.106c-0.521-0.289-0.999-0.603-1.39-0.914c-1.432-1.138-3.584-3.613-3.586-5.759
					c-0.001-0.91,0.128-1.74,0.824-2.415c0.013-0.013,0.025-0.027,0.039-0.04c0.007-0.007,0.013-0.014,0.02-0.021l0.005,0.003
					c1.242-1.128,3.522-0.806,4.749,0.644c0.237,0.28,0.433,0.188,0.556,0.059c0.1-0.103,0.15-0.248,0.089-0.43
					c-0.002-0.008-0.003-0.016-0.006-0.023c-0.592-1.616-1.07-3.432-1.008-5.183c0.038-1.075,0.379-2.438,1.165-3.254
					c1.341-1.393,2.831-1.088,4.376-0.458c2.458,1.002,4.995,1.479,7.645,1.556c2.842,0.083,9.132-0.775,9.282-4.357
					c1.172-0.541,2.189-1.815,2.688-2.844c0.965-1.99,0.509-4.463-0.338-6.411c-1.542-3.549-5.163-4.946-8.433-3.722
					c-4.86-3.251-10.993-4.177-16.459-1.558c-5.62,2.693-7.87,7.992-9.108,13.623c-0.527,1.417-0.794,2.188-2.666,3.099
					c-0.663,0.323-1.464,0.465-2.154,0.736c-1.257,0.494-2.512,1.06-3.609,1.854c-0.545,0.394-1.011,0.838-1.401,1.321
					C117.768,206.196,127.457,212.338,127.517,212.376z"/>
				
					<linearGradient id="SVGID_00000168108343062809442190000008331271147954965913_" gradientUnits="userSpaceOnUse" x1="94.4763" y1="271.138" x2="94.4763" y2="129.1367">
					<stop  offset="0" style="stop-color:#000000"/>
					<stop  offset="0.4554" style="stop-color:#070707"/>
					<stop  offset="1" style="stop-color:#161616"/>
				</linearGradient>
				<path style="fill:url(#SVGID_00000168108343062809442190000008331271147954965913_);" d="M106.585,246.73
					c2.918-8.337-0.552-15.878-1.975-19.422c-1.67-4.17-5.67-14.34-8.17-23.17c-0.504-1.79-0.963-3.534-1.387-5.238
					c-3.426-1.099-7.341-0.373-10.118,2.212c-4.345,4.043-4.752,10.661-1.813,15.62c1.694,2.859,4.2,4.627,6.986,6.31
					c4.012,2.424,6.129,5.88,6.851,10.486c0.501,3.198,0.843,6.092,2.911,8.71C101.563,244.382,103.95,245.993,106.585,246.73z"/>
				<g>
					
						<linearGradient id="SVGID_00000114752377514188716320000001778957590127205509_" gradientUnits="userSpaceOnUse" x1="148.8922" y1="271.1378" x2="148.8922" y2="129.1366">
						<stop  offset="0" style="stop-color:#000000"/>
						<stop  offset="0.4554" style="stop-color:#070707"/>
						<stop  offset="1" style="stop-color:#161616"/>
					</linearGradient>
					<path style="fill:url(#SVGID_00000114752377514188716320000001778957590127205509_);" d="M147.513,192.385
						c0.267,1.588,0.778,3.658,1.28,5.645c0.887-4.983,1.617-10.701,2.193-16.035c-0.319,0.275-0.661,0.514-1.019,0.68
						c-0.069,1.645-1.437,2.711-3.167,3.38C147.01,188.167,147.16,190.289,147.513,192.385z"/>
					
						<linearGradient id="SVGID_00000072998987617649479190000009829096985650220715_" gradientUnits="userSpaceOnUse" x1="166.3452" y1="271.138" x2="166.3452" y2="129.1366">
						<stop  offset="0" style="stop-color:#000000"/>
						<stop  offset="0.4554" style="stop-color:#070707"/>
						<stop  offset="1" style="stop-color:#161616"/>
					</linearGradient>
					<path style="fill:url(#SVGID_00000072998987617649479190000009829096985650220715_);" d="M176.604,221.619
						c-1.007-3.661-2.39-7.337-4.272-10.642c-1.932-3.394-4.572-5.912-7.45-8.501c-0.916-0.824-1.814-1.678-2.684-2.561
						c-0.239,17.277-2.616,30.736-6.087,38.723c2.047,4.716-0.654,11.649-0.968,12.422c7.462-0.198,14.703-3.804,18.976-10.634
						C177.705,234.693,178.379,228.077,176.604,221.619z"/>
				</g>
			</g>
		</g>
		<g>
			
				<linearGradient id="SVGID_00000129912952140369329860000003181263014387817884_" gradientUnits="userSpaceOnUse" x1="104.0484" y1="354.9762" x2="104.0484" y2="267.2158">
				<stop  offset="0" style="stop-color:#4410B0"/>
				<stop  offset="0.3755" style="stop-color:#591FD3"/>
				<stop  offset="0.7771" style="stop-color:#6B2CF3"/>
				<stop  offset="1" style="stop-color:#7231FF"/>
			</linearGradient>
			<path style="fill:url(#SVGID_00000129912952140369329860000003181263014387817884_);" d="M132.111,284.971
				c-18.153-2.955-26.742-11.721-30.605-17.756c-11.547,8.062-17.952,33.434-20.728,43.922c-3,11.333-21.167-6.333-21.167-6.333
				l-5.667,4.167c3.5,8.833,9.466,17.362,17,22.833c4.514,3.278,9.48,3.529,14.431,2.023c3.514,4.306,11.718,12.732,15.986,15.81
				c3.688,2.66,19.75,11.333,33.25-1.5c11.834-11.25,18.161-54.26,19.542-64.703C148.979,285.424,141.784,286.181,132.111,284.971z
				 M95.743,328.402c10.123-7.273,18.637-18.569,20.868-21.264c-0.5,7.167-0.039,13.109,0.295,23.442
				C117.21,340.029,98.885,330.162,95.743,328.402z"/>
			<path style="fill:#71BCFF;" d="M59.611,304.805c0,0,0.5-5-2.167-7c-3.5,0.667-13.667,3-21,3.5
				c-1.833,3.167,17.241,7.038,17.5,7.667C55.297,307.619,59.611,304.805,59.611,304.805z"/>
		</g>
		<path style="fill:#CEC0FF;" d="M149.967,404.388c0-3.55-18.571-6.428-41.48-6.428s-41.48,2.878-41.48,6.428
			c0,3.55,18.572,6.428,41.48,6.428S149.967,407.938,149.967,404.388z"/>
	</g>
	<g>
		<path style="fill:#FF669D;" d="M248.864,99.205c1.39-0.449,2.828-1.017,4.313-1.702c1.483-0.685,2.82-1.522,4.008-2.513
			c1.189-0.99,2.115-2.15,2.781-3.477c0.666-1.328,0.871-2.89,0.617-4.69c-0.378-2.665-1.627-4.56-3.746-5.683
			c-2.12-1.123-4.761-1.46-7.924-1.012c-1.301,0.185-2.458,0.396-3.467,0.634c-1.01,0.238-1.935,0.528-2.771,0.867
			c-0.839,0.341-1.687,0.713-2.546,1.12c-0.86,0.407-1.76,0.866-2.699,1.379c-1.098-1.489-2.046-3.062-2.851-4.72
			c-0.804-1.656-1.401-3.407-1.787-5.25c1.532-0.787,2.952-1.477,4.26-2.075c1.306-0.595,2.595-1.11,3.861-1.543
			c1.267-0.431,2.545-0.787,3.834-1.065c1.289-0.277,2.677-0.522,4.166-0.733c7.441-1.055,13.292-0.159,17.553,2.684
			c4.261,2.845,6.81,7.212,7.644,13.101c0.413,2.915,0.21,5.506-0.607,7.771c-0.818,2.267-1.913,4.242-3.288,5.922
			c-1.375,1.682-2.835,3.091-4.382,4.226c-1.546,1.137-2.817,1.998-3.81,2.581l1.199,8.464c-2.118,0.68-4.168,1.16-6.152,1.44
			c-2.047,0.29-4.026,0.381-5.939,0.273L248.864,99.205z M253.179,136.357c-0.696-2.241-1.203-4.479-1.519-6.712
			c-0.316-2.232-0.456-4.552-0.418-6.962c2.24-0.697,4.479-1.204,6.711-1.521c2.232-0.316,4.551-0.454,6.961-0.417
			c0.707,2.305,1.213,4.541,1.52,6.711c0.326,2.295,0.465,4.616,0.417,6.962c-2.304,0.707-4.541,1.213-6.71,1.521
			C257.846,136.265,255.525,136.404,253.179,136.357z"/>
	</g>
	<g>
		<path style="fill:#E54184;" d="M291.496,215.105c0.773-0.126,1.582-0.311,2.425-0.555c0.842-0.243,1.618-0.579,2.329-1.009
			c0.71-0.429,1.295-0.969,1.755-1.62c0.46-0.65,0.696-1.462,0.706-2.437c0.015-1.444-0.495-2.55-1.528-3.317
			c-1.034-0.767-2.407-1.159-4.121-1.177c-0.705-0.007-1.336,0.011-1.89,0.056c-0.555,0.045-1.069,0.124-1.54,0.236
			c-0.472,0.113-0.952,0.242-1.441,0.388c-0.489,0.146-1.003,0.317-1.542,0.513c-0.462-0.878-0.838-1.789-1.131-2.733
			c-0.293-0.943-0.468-1.92-0.524-2.928c0.876-0.294,1.685-0.545,2.427-0.757c0.741-0.21,1.466-0.379,2.172-0.507
			c0.707-0.126,1.413-0.212,2.12-0.255c0.706-0.043,1.462-0.061,2.269-0.052c4.031,0.041,7.062,0.989,9.093,2.84
			c2.03,1.853,3.029,4.374,2.997,7.566c-0.016,1.579-0.333,2.937-0.949,4.072c-0.617,1.136-1.357,2.095-2.222,2.875
			c-0.865,0.781-1.753,1.41-2.665,1.888c-0.912,0.478-1.655,0.832-2.229,1.061l-0.047,4.586c-1.178,0.19-2.305,0.279-3.379,0.267
			c-1.109-0.011-2.166-0.123-3.172-0.335L291.496,215.105z M290.785,235.157c-0.189-1.245-0.276-2.473-0.264-3.682
			c0.012-1.209,0.126-2.451,0.34-3.726c1.244-0.189,2.473-0.277,3.682-0.265c1.21,0.012,2.451,0.126,3.726,0.341
			c0.189,1.28,0.277,2.506,0.264,3.682c-0.013,1.243-0.126,2.486-0.341,3.726c-1.279,0.189-2.506,0.277-3.682,0.265
			C293.268,235.485,292.025,235.372,290.785,235.157z"/>
	</g>
	<g>
		<path style="fill:#E54184;" d="M148.811,74.788c0.628-0.468,1.26-1.006,1.896-1.61c0.635-0.604,1.169-1.261,1.601-1.969
			c0.432-0.708,0.702-1.457,0.81-2.247c0.109-0.79-0.057-1.618-0.498-2.488c-0.653-1.288-1.615-2.034-2.886-2.238
			c-1.271-0.204-2.67,0.082-4.199,0.857c-0.629,0.319-1.18,0.626-1.651,0.922c-0.472,0.296-0.891,0.603-1.257,0.92
			c-0.367,0.318-0.733,0.654-1.099,1.009c-0.366,0.355-0.744,0.744-1.132,1.167c-0.815-0.566-1.569-1.201-2.264-1.904
			c-0.695-0.702-1.3-1.488-1.816-2.357c0.642-0.664,1.244-1.261,1.804-1.79c0.56-0.528,1.126-1.013,1.694-1.451
			c0.569-0.438,1.156-0.84,1.763-1.204c0.607-0.364,1.269-0.728,1.989-1.093c3.596-1.823,6.722-2.38,9.378-1.674
			c2.656,0.708,4.706,2.484,6.148,5.331c0.714,1.409,1.059,2.76,1.036,4.051c-0.023,1.293-0.238,2.485-0.645,3.576
			c-0.407,1.092-0.905,2.06-1.494,2.904c-0.589,0.845-1.085,1.502-1.488,1.969l2.073,4.091c-0.958,0.712-1.916,1.31-2.875,1.796
			c-0.989,0.501-1.979,0.89-2.969,1.166L148.811,74.788z M157.429,92.908c-0.741-1.018-1.386-2.067-1.932-3.146
			c-0.547-1.078-1.019-2.233-1.417-3.463c1.017-0.741,2.066-1.386,3.145-1.933c1.079-0.547,2.233-1.018,3.463-1.416
			c0.758,1.048,1.401,2.096,1.933,3.145c0.562,1.109,1.035,2.263,1.416,3.463c-1.048,0.757-2.096,1.402-3.145,1.933
			C159.783,92.054,158.629,92.527,157.429,92.908z"/>
	</g>
	<g>
		<path style="fill:#E54184;" d="M212.364,164.907c0.671,0.405,1.406,0.788,2.206,1.149c0.799,0.36,1.608,0.608,2.427,0.741
			c0.819,0.134,1.615,0.101,2.387-0.096c0.772-0.197,1.477-0.663,2.117-1.399c0.947-1.09,1.276-2.263,0.986-3.516
			c-0.29-1.254-1.082-2.443-2.376-3.567c-0.533-0.462-1.024-0.857-1.476-1.182c-0.452-0.326-0.894-0.598-1.326-0.818
			c-0.433-0.22-0.882-0.433-1.349-0.638c-0.467-0.205-0.97-0.408-1.507-0.609c0.217-0.968,0.521-1.906,0.91-2.814
			c0.388-0.908,0.888-1.765,1.499-2.57c0.857,0.344,1.637,0.677,2.338,0.997c0.7,0.32,1.362,0.661,1.983,1.022
			c0.62,0.362,1.214,0.754,1.78,1.179c0.566,0.425,1.152,0.901,1.761,1.43c3.043,2.644,4.738,5.33,5.084,8.057
			c0.345,2.727-0.528,5.295-2.621,7.704c-1.036,1.192-2.157,2.021-3.362,2.486c-1.206,0.466-2.391,0.716-3.556,0.75
			c-1.165,0.034-2.249-0.062-3.253-0.29c-1.005-0.227-1.8-0.439-2.385-0.636l-3.008,3.462c-1.02-0.619-1.935-1.281-2.747-1.986
			c-0.837-0.727-1.57-1.497-2.199-2.311L212.364,164.907z M198.827,179.717c0.663-1.07,1.392-2.062,2.186-2.975
			c0.793-0.913,1.684-1.785,2.674-2.617c1.07,0.663,2.062,1.392,2.976,2.185c0.913,0.793,1.784,1.684,2.616,2.674
			c-0.686,1.097-1.414,2.088-2.185,2.975c-0.815,0.939-1.707,1.811-2.674,2.617c-1.096-0.685-2.088-1.413-2.975-2.184
			C200.505,181.576,199.632,180.684,198.827,179.717z"/>
	</g>
	<g>
		<path style="fill:#E54184;" d="M348.286,56.196c0.775,0.117,1.601,0.188,2.478,0.215c0.876,0.026,1.718-0.056,2.526-0.247
			c0.807-0.191,1.53-0.526,2.167-1.004c0.638-0.478,1.11-1.179,1.418-2.104c0.457-1.37,0.31-2.579-0.439-3.625
			c-0.749-1.047-1.936-1.841-3.562-2.382c-0.669-0.223-1.275-0.398-1.816-0.526c-0.542-0.127-1.055-0.21-1.538-0.247
			c-0.484-0.037-0.981-0.061-1.49-0.072c-0.51-0.011-1.052-0.005-1.626,0.016c-0.171-0.978-0.25-1.96-0.239-2.948
			c0.01-0.987,0.143-1.971,0.398-2.948c0.924-0.011,1.771-0.003,2.542,0.023c0.77,0.027,1.512,0.088,2.223,0.183
			c0.711,0.096,1.41,0.231,2.096,0.406c0.685,0.175,1.41,0.39,2.176,0.645c3.825,1.274,6.42,3.105,7.786,5.489
			c1.365,2.386,1.544,5.092,0.535,8.12c-0.499,1.499-1.217,2.694-2.151,3.586c-0.935,0.893-1.934,1.579-2.996,2.056
			c-1.063,0.478-2.101,0.806-3.115,0.98c-1.015,0.176-1.831,0.285-2.447,0.327l-1.45,4.351c-1.18-0.18-2.279-0.441-3.298-0.781
			c-1.052-0.351-2.025-0.78-2.917-1.29L348.286,56.196z M341.467,75.067c0.202-1.243,0.494-2.439,0.877-3.586
			c0.382-1.147,0.87-2.295,1.465-3.443c1.242,0.202,2.439,0.494,3.586,0.876c1.147,0.382,2.294,0.871,3.442,1.466
			c-0.212,1.276-0.505,2.471-0.876,3.586c-0.393,1.18-0.881,2.327-1.466,3.442c-1.275-0.212-2.471-0.504-3.586-0.876
			C343.729,76.139,342.582,75.651,341.467,75.067z"/>
	</g>
	<g>
		<path style="fill:#E54184;" d="M448.177,242.584c0.664,0.417,1.393,0.812,2.186,1.186c0.793,0.374,1.598,0.635,2.415,0.781
			c0.816,0.147,1.613,0.128,2.388-0.056c0.775-0.184,1.488-0.638,2.14-1.363c0.965-1.074,1.314-2.241,1.045-3.499
			c-0.269-1.259-1.041-2.46-2.316-3.606c-0.525-0.471-1.01-0.874-1.456-1.207c-0.446-0.333-0.884-0.613-1.312-0.84
			c-0.429-0.227-0.875-0.448-1.338-0.661c-0.463-0.213-0.963-0.425-1.497-0.634c0.234-0.964,0.553-1.897,0.957-2.799
			c0.404-0.901,0.917-1.75,1.542-2.544c0.852,0.359,1.625,0.704,2.321,1.036c0.695,0.331,1.351,0.684,1.965,1.055
			c0.614,0.372,1.201,0.775,1.76,1.209c0.558,0.434,1.137,0.92,1.737,1.46c2.999,2.695,4.648,5.409,4.948,8.14
			c0.3,2.732-0.617,5.285-2.75,7.659c-1.056,1.175-2.191,1.984-3.404,2.429c-1.214,0.446-2.403,0.676-3.568,0.69
			c-1.165,0.015-2.248-0.1-3.248-0.344c-1.001-0.244-1.792-0.469-2.374-0.676l-3.066,3.411c-1.009-0.636-1.914-1.314-2.713-2.032
			c-0.825-0.741-1.545-1.524-2.16-2.347L448.177,242.584z M434.393,257.165c0.681-1.059,1.427-2.039,2.235-2.938
			c0.808-0.899,1.714-1.757,2.718-2.572c1.059,0.681,2.039,1.426,2.939,2.234c0.899,0.809,1.756,1.714,2.571,2.718
			c-0.704,1.085-1.449,2.064-2.235,2.938c-0.831,0.925-1.737,1.783-2.718,2.572c-1.085-0.703-2.064-1.448-2.938-2.234
			C436.04,259.052,435.182,258.146,434.393,257.165z"/>
	</g>
	<g>
		<path style="fill:#E54184;" d="M48.959,237.994c0.732-0.281,1.485-0.627,2.261-1.037c0.775-0.41,1.467-0.897,2.074-1.462
			c0.608-0.564,1.07-1.213,1.389-1.943c0.318-0.731,0.383-1.573,0.195-2.53c-0.279-1.417-1.004-2.396-2.172-2.936
			c-1.168-0.54-2.593-0.645-4.274-0.313c-0.692,0.137-1.305,0.283-1.839,0.44c-0.534,0.157-1.021,0.339-1.459,0.545
			c-0.439,0.207-0.883,0.431-1.331,0.674c-0.449,0.243-0.918,0.515-1.406,0.817c-0.631-0.766-1.185-1.581-1.664-2.446
			c-0.479-0.864-0.849-1.784-1.109-2.76c0.798-0.466,1.539-0.877,2.222-1.235c0.682-0.357,1.358-0.67,2.024-0.938
			c0.666-0.268,1.341-0.495,2.023-0.682c0.682-0.186,1.419-0.357,2.21-0.513c3.955-0.78,7.116-0.47,9.481,0.929
			c2.365,1.4,3.857,3.666,4.474,6.797c0.306,1.55,0.272,2.943-0.1,4.18c-0.372,1.238-0.902,2.328-1.59,3.268
			c-0.688,0.941-1.429,1.738-2.225,2.391c-0.795,0.654-1.451,1.152-1.966,1.493l0.887,4.499c-1.115,0.425-2.199,0.742-3.254,0.95
			c-1.088,0.215-2.146,0.321-3.174,0.318L48.959,237.994z M52.346,257.771c-0.438-1.18-0.774-2.365-1.008-3.551
			c-0.234-1.186-0.376-2.425-0.425-3.717c1.18-0.438,2.364-0.774,3.551-1.009c1.187-0.234,2.425-0.375,3.717-0.425
			c0.445,1.214,0.781,2.397,1.009,3.551c0.241,1.22,0.383,2.459,0.425,3.717c-1.214,0.445-2.398,0.781-3.551,1.009
			C54.844,257.586,53.604,257.728,52.346,257.771z"/>
	</g>
	<g>
		<ellipse style="fill:#CEC0FF;" cx="242.72" cy="435.126" rx="54.411" ry="8.432"/>
		<g>
			
				<linearGradient id="SVGID_00000129910762754777584800000005551241384258633863_" gradientUnits="userSpaceOnUse" x1="237.433" y1="422.273" x2="237.433" y2="325.5692">
				<stop  offset="0" style="stop-color:#000000"/>
				<stop  offset="0.4554" style="stop-color:#070707"/>
				<stop  offset="1" style="stop-color:#161616"/>
			</linearGradient>
			<path style="fill:url(#SVGID_00000129910762754777584800000005551241384258633863_);" d="M255.555,330.595
				c-5.815,1.233-11.727,1.321-17.647,1.17c-4.403-0.112-8.89-0.137-13.17-1.163c-0.472,1.27-0.988,2.524-1.574,3.755
				c-0.003,0.006-0.007,0.008-0.01,0.013c-0.056,0.254-0.28,0.475-0.604,0.392c-7.117-1.823-13.834-4.916-19.793-9.193
				c-2.752,6.865-8.213,24.383-6.189,51.704c1,13.667,7.602,39,10.634,45c4.032,0,9.366,0,9.366,0s-2.284-42.123,10.858-69.562
				c2.476,0,2.779,0,2.779,0s24.166,51.228,39.166,69.562c5,0,9.366,0,9.366,0s-20.44-53.833-23.119-91.707
				C255.596,330.574,255.581,330.589,255.555,330.595z"/>
			<path style="fill:#7231FF;" d="M207.203,422.273c0,0-7.055,8.723-13.634,11.723c4.42,2.333,15.866,0.943,23.6-3.057
				c1.734-3.667-0.6-8.667-0.6-8.667H207.203z"/>
			<path style="fill:#7231FF;" d="M278.737,422.273c0,0,7.055,8.723,13.635,11.723c-4.42,2.333-15.866,0.943-23.6-3.057
				c-1.734-3.667,0.599-8.667,0.599-8.667H278.737z"/>
		</g>
		<path style="fill:#C97339;" d="M309.139,270.522c-1.136,1.683-2.619,3.13-4.18,4.406c-2.709-0.562-5.291-2.135-6.926-4.288
			c0.18-3.413,1.053-9.086,4.593-9.809c0.978-1.234,2.359-2.244,3.775-2.036c0.533-0.485,1.197-0.773,1.978-0.643
			c0.881,0.16,1.415,0.835,1.491,1.598c0.857,1.073,1.031,3.085,0.94,4.471c-0.12,2.018-0.194,3.863-1.252,5.645
			C309.422,270.085,309.285,270.306,309.139,270.522z"/>
		<g>
			<path style="fill:#C97339;" d="M242.402,232.36c-0.05,0.22-0.12,0.43-0.18,0.65c-0.28,2.3-0.66,4.58-0.8,6.9
				c-0.22,3.71,0.24,10.22-0.08,12.04c-0.35,2.49-1.64,4.66-4.28,5.56c-1.97,0.6-5,0.27-6.53-0.32c-5.71-2.18-8.59-7.1-9.39-8.7
				c-0.02-0.11-0.05-0.21-0.07-0.32c-0.05-0.06-0.11-0.12-0.17-0.18c-0.01-0.01-0.01-0.02-0.01-0.02c-2.5,0.09-5.42-1.71-6.68-3.79
				c-1.1-1.8-2.31-5.33-1.19-7.35c0.57-1.03,1.58-1.39,2.64-1.38c-0.29-1.46-0.46-2.94-0.44-4.37c-0.21-1.6-0.16-3.27,0.22-4.94
				c1.72-7.44,9.14-12.09,16.59-10.37C239.472,217.49,244.122,224.91,242.402,232.36z"/>
			<path style="fill:#FFD69F;" d="M221.072,248.17c0.02,0.11,0.05,0.21,0.07,0.32c-0.14-0.27-0.22-0.45-0.24-0.5
				C220.962,248.05,221.022,248.11,221.072,248.17z"/>
			<path style="fill:#915329;" d="M237.062,257.51c-1.97,0.6-5,0.27-6.53-0.32c-5.71-2.18-8.59-7.1-9.39-8.7
				c0.67,3.19,0.88,6.41,0.63,9.7c-0.01,0.1,0.02,0.17,0.05,0.24c0.01,0.03,0,0.05,0.01,0.07c1.06,2.54,4.65,3.36,7.11,3.56
				c2.87,0.23,6.23-0.28,8.07-2.7c0.13-0.17,0.11-0.33,0.02-0.47C237.062,258.43,237.062,257.97,237.062,257.51z"/>
			
				<linearGradient id="SVGID_00000108283163849980118560000000716198178363273619_" gradientUnits="userSpaceOnUse" x1="234.0335" y1="238.7123" x2="234.0335" y2="210.4894">
				<stop  offset="0" style="stop-color:#000000"/>
				<stop  offset="0.4554" style="stop-color:#070707"/>
				<stop  offset="1" style="stop-color:#161616"/>
			</linearGradient>
			<path style="fill:url(#SVGID_00000108283163849980118560000000716198178363273619_);" d="M250.514,212.275
				c-3.987-2.419-9.388-2.004-11.488-0.952c-2.487,0.906-3.374,2.742-7.999,2.193c-2.183-0.259-4.372-0.537-6.566-0.332
				c-3.783,0.353-6.316,1.318-8.809,4.256c-3.076,3.625-4.25,9.25-0.623,14.135c0.08,1.028,0.276,3.033,0.633,3.876
				c0.771,0.084,3.146-0.135,5.865,2.873c0.418,0.634,1.099,0.441,0.976-0.189c-0.429-2.205-0.183-4.978,0.494-7.078
				c4.108,1.929,8.827,2.449,13.45,2.405c6.552-0.062,13.467-0.882,17.273-6.573C256.527,222.69,255.615,215.37,250.514,212.275z"/>
		</g>
		
			<linearGradient id="SVGID_00000121248932898370932350000015640380448448847268_" gradientUnits="userSpaceOnUse" x1="247.8141" y1="334.7798" x2="247.8141" y2="258.3043">
			<stop  offset="0" style="stop-color:#4410B0"/>
			<stop  offset="0.3755" style="stop-color:#591FD3"/>
			<stop  offset="0.7771" style="stop-color:#6B2CF3"/>
			<stop  offset="1" style="stop-color:#7231FF"/>
		</linearGradient>
		<path style="fill:url(#SVGID_00000121248932898370932350000015640380448448847268_);" d="M304.96,274.927
			c-2.692-0.558-5.255-2.116-6.892-4.248c-2.229,4.303-5.32,7.339-8.325,9.84c-0.276,0.23-0.555,0.453-0.836,0.67
			c-3.801,2.928-8.755,4.131-13.348,2.744c-0.028-0.008-0.056-0.017-0.083-0.025c-6.368-1.963-10.8-7.336-14.881-12.286
			c-0.023-0.028-0.049-0.039-0.073-0.059c-2.078-2.868-4.475-5.395-7.743-7.468c-4.716-2.991-10.128-4.629-15.681-4.959
			c-0.005,0.072-0.025,0.147-0.084,0.224c-1.84,2.42-5.2,2.93-8.07,2.7c-2.46-0.2-6.05-1.02-7.11-3.56c-0.01-0.02,0-0.04-0.01-0.07
			c-0.017-0.039-0.032-0.081-0.041-0.125c-12.289,5.596-25.306,14.832-29.24,28.211c-1.954,6.646-2.319,14.015-1.578,20.879
			c0.338,3.128,1.036,6.268,2.57,9.043c1.724,3.119,4.502,5.51,7.269,7.681c6.426,5.042,13.845,8.62,21.748,10.644
			c0.324,0.083,0.548-0.138,0.604-0.392c0.003-0.005,0.007-0.007,0.01-0.013c0.586-1.231,1.102-2.485,1.574-3.755
			c4.28,1.026,8.767,1.05,13.17,1.163c5.921,0.151,11.833,0.063,17.647-1.17c0.162-0.034,0.263-0.124,0.315-0.236
			c0.047-0.052,0.086-0.117,0.11-0.199c2.951-10.259,4.102-20.888,3.457-31.523c2.071,0.925,4.174,1.776,6.33,2.498
			c5.438,1.82,11.712,3.199,17.359,1.497c5.406-1.629,9.12-6.236,12.361-10.597c3.902-5.251,7.048-10.992,9.508-17.048
			c0.016-0.04,0.021-0.076,0.025-0.112C305,274.892,304.98,274.91,304.96,274.927z"/>
		<g>
			<g>
				<path style="fill:#FF669D;" d="M234.161,318.583c1.902,0.642,3.953,1.19,6.152,1.649c2.197,0.458,4.357,0.627,6.479,0.505
					c2.121-0.121,4.092-0.643,5.912-1.564c1.82-0.921,3.325-2.476,4.515-4.67c1.763-3.25,1.933-6.364,0.514-9.336
					c-1.422-2.973-4.06-5.505-7.917-7.597c-1.587-0.861-3.036-1.574-4.345-2.136c-1.31-0.564-2.566-1-3.767-1.309
					c-1.204-0.309-2.445-0.592-3.725-0.846c-1.282-0.255-2.651-0.483-4.105-0.685c0.006-2.541,0.246-5.053,0.714-7.54
					c0.467-2.485,1.241-4.905,2.321-7.255c2.334,0.385,4.466,0.784,6.398,1.195c1.928,0.41,3.771,0.896,5.523,1.454
					c1.751,0.56,3.453,1.212,5.103,1.96c1.65,0.748,3.381,1.614,5.196,2.599c9.073,4.922,14.798,10.694,17.176,17.317
					c2.375,6.623,1.617,13.527-2.279,20.71c-1.928,3.555-4.27,6.248-7.025,8.08c-2.756,1.833-5.58,3.115-8.472,3.845
					c-2.892,0.732-5.657,1.092-8.293,1.08c-2.636-0.01-4.742-0.099-6.314-0.268l-5.599,10.322c-2.893-0.982-5.549-2.129-7.968-3.441
					c-2.495-1.354-4.755-2.872-6.776-4.556L234.161,318.583z M208.54,363.11c1.064-3.043,2.335-5.927,3.811-8.649
					c1.476-2.722,3.22-5.396,5.232-8.024c3.043,1.063,5.927,2.334,8.649,3.811c2.722,1.476,5.396,3.221,8.023,5.233
					c-1.105,3.121-2.375,6.003-3.811,8.649c-1.518,2.798-3.262,5.474-5.233,8.024c-3.12-1.105-6.003-2.375-8.649-3.81
					C213.766,366.825,211.091,365.08,208.54,363.11z"/>
			</g>
		</g>
		<path style="fill:#C97339;" d="M228.2,337.344c-1.95-0.563-3.784-1.53-5.477-2.622c-0.299-2.751,0.405-5.691,1.951-7.909
			c3.303-0.878,8.969-1.792,10.746,1.354c1.475,0.551,2.861,1.555,3.099,2.966c0.625,0.358,1.103,0.901,1.221,1.685
			c0.118,0.888-0.359,1.603-1.062,1.91c-0.757,1.145-2.618,1.93-3.965,2.269c-1.957,0.507-3.735,1.003-5.757,0.544
			C228.702,337.478,228.449,337.416,228.2,337.344z"/>
	</g>
	<g>
		<path style="fill:#CEC0FF;" d="M426.373,408.388c0-3.55-18.571-6.428-41.48-6.428s-41.48,2.878-41.48,6.428
			c0,3.55,18.571,6.428,41.48,6.428S426.373,411.938,426.373,408.388z"/>
		<g>
			<path style="fill:#FF669D;" d="M386.566,136.591c0.885,1.801,1.941,3.643,3.166,5.525c1.224,1.881,2.626,3.532,4.208,4.951
				c1.58,1.42,3.34,2.449,5.276,3.092c1.936,0.643,4.101,0.613,6.496-0.089c3.548-1.04,5.877-3.113,6.984-6.216
				c1.107-3.104,1.044-6.76-0.19-10.971c-0.509-1.732-1.023-3.263-1.547-4.588c-0.523-1.326-1.1-2.525-1.727-3.595
				c-0.629-1.072-1.303-2.152-2.025-3.239c-0.723-1.088-1.525-2.221-2.407-3.395c1.807-1.786,3.757-3.387,5.852-4.808
				c2.092-1.42,4.353-2.577,6.782-3.467c1.372,1.927,2.592,3.721,3.662,5.38c1.067,1.657,2.022,3.308,2.86,4.943
				c0.837,1.637,1.573,3.304,2.206,5.001c0.632,1.697,1.238,3.535,1.819,5.518c2.904,9.905,2.844,18.035-0.178,24.39
				c-3.024,6.354-8.456,10.682-16.297,12.98c-3.881,1.138-7.442,1.374-10.683,0.711c-3.243-0.663-6.143-1.762-8.699-3.299
				c-2.558-1.536-4.762-3.242-6.61-5.121c-1.852-1.877-3.272-3.434-4.261-4.668l-11.268,3.303c-1.343-2.744-2.4-5.436-3.174-8.077
				c-0.799-2.725-1.314-5.398-1.545-8.019L386.566,136.591z M336.921,149.8c2.908-1.39,5.851-2.52,8.822-3.392
				c2.971-0.871,6.097-1.519,9.38-1.944c1.39,2.907,2.521,5.85,3.394,8.821c0.871,2.972,1.518,6.097,1.942,9.38
				c-2.993,1.416-5.933,2.546-8.821,3.393c-3.055,0.896-6.182,1.545-9.38,1.943c-1.416-2.992-2.547-5.933-3.393-8.82
				C337.969,156.125,337.321,152.998,336.921,149.8z"/>
		</g>
		<g>
			<path style="fill:#D38F62;" d="M376.793,219.249c0,0,0,0-6.08,5c-6.09,5-10.78,3.32-10.78,3.32c0.15,3.24,1.96,6.11,5.55,6.65
				c4.65,0.7,8.91-1.75,11-5.87c0.13-0.26,0.13-0.5,0.07-0.72c0.02-0.09,0.05-0.17,0.05-0.27
				C376.513,224.649,376.593,221.959,376.793,219.249z"/>
			<path style="fill:#FFAD76;" d="M383.993,205.639c-0.44,2.08-1.3,4.19-2.37,6.09c0.81,2.3-1.82,5.31-3.44,6.6
				c-0.39,0.31-0.87,0.62-1.39,0.91v0.01c-1.128,1.225-5.304,4.706-5.8,5.116c-5.61,4.643-10.656,3.475-10.656,3.475
				c-0.93-0.09-2.254-0.611-3.154-1.091c-2.7-1.44-3.56-3.99-3.33-6.64c0.1-1.84,2.02-8.08,2.63-11.75c0.39-2.29,0.53-4.6,0.77-6.9
				c-0.01-0.23-0.03-0.45-0.03-0.68c0-7.64,6.19-13.84,13.83-13.84c7.64,0,13.84,6.2,13.84,13.84
				C384.893,202.489,384.563,204.129,383.993,205.639z"/>
			<g>
				
					<linearGradient id="SVGID_00000000906316814246435260000012935465327973625257_" gradientUnits="userSpaceOnUse" x1="335.3976" y1="259.7094" x2="335.3976" y2="158.9343">
					<stop  offset="0" style="stop-color:#000000"/>
					<stop  offset="0.4554" style="stop-color:#070707"/>
					<stop  offset="1" style="stop-color:#161616"/>
				</linearGradient>
				<path style="fill:url(#SVGID_00000000906316814246435260000012935465327973625257_);" d="M341.876,206.506
					c-3.071,3.089-8.542,3.276-11.532,6.725c-2.99,3.449-3.387,8.379-1.771,12.529c2.334,5.996,8.546,10.262,14.586,9.762
					C342.057,227.33,341.555,217.547,341.876,206.506z"/>
				
					<linearGradient id="SVGID_00000052069940117186439170000014861410063009049013_" gradientUnits="userSpaceOnUse" x1="407.6282" y1="259.7093" x2="407.6282" y2="158.9347">
					<stop  offset="0" style="stop-color:#000000"/>
					<stop  offset="0.4554" style="stop-color:#070707"/>
					<stop  offset="1" style="stop-color:#161616"/>
				</linearGradient>
				<path style="fill:url(#SVGID_00000052069940117186439170000014861410063009049013_);" d="M409.27,213.56
					c-0.51,2.115-1.076,4.298-1.71,6.551c-2.028,7.162-5.042,15.205-7,20.214c2.946-0.116,5.809-0.703,8.244-2.626
					c3.07-2.424,5.053-6.104,5.688-9.937C415.346,222.608,413.52,216.509,409.27,213.56z"/>
				<g>
					
						<linearGradient id="SVGID_00000155830472709252452790000018185736439845231033_" gradientUnits="userSpaceOnUse" x1="373.1588" y1="259.7093" x2="373.1588" y2="158.9345">
						<stop  offset="0" style="stop-color:#000000"/>
						<stop  offset="0.4554" style="stop-color:#070707"/>
						<stop  offset="1" style="stop-color:#161616"/>
					</linearGradient>
					<path style="fill:url(#SVGID_00000155830472709252452790000018185736439845231033_);" d="M394.113,203.425
						c-1.098-0.794-2.352-1.359-3.609-1.854c-0.69-0.271-1.49-0.414-2.154-0.736c-1.872-0.911-2.139-1.681-2.666-3.099
						c-1.239-5.63-3.488-10.93-9.108-13.623c-5.466-2.619-11.599-1.693-16.459,1.558c-3.271-1.225-6.891,0.173-8.433,3.722
						c-0.847,1.948-1.303,4.421-0.338,6.411c0.499,1.029,1.517,2.303,2.688,2.844c0.15,3.583,6.44,4.44,9.282,4.357
						c2.002-0.058,3.94-0.347,5.828-0.916c0.72,3.543,2.91,6.677,6.165,8.775c0.155,0.1,0.304,0.094,0.429,0.036
						c0.11,0.038,0.243,0.019,0.395-0.161c1.227-1.451,3.507-1.772,4.749-0.644l0.005-0.003c0.007,0.007,0.013,0.014,0.02,0.021
						c0.014,0.013,0.025,0.027,0.039,0.04c0.696,0.675,0.825,1.505,0.824,2.415c-0.002,2.147-2.155,4.621-3.586,5.759
						c-0.391,0.311-0.869,0.625-1.39,0.914c-0.8,6.092-0.181,8.851-0.31,9.106c0.06-0.038,9.749-6.179,19.031-23.602
						C395.124,204.263,394.657,203.819,394.113,203.425z"/>
					<g>
						
							<linearGradient id="SVGID_00000106832043788531081470000014312527638716791471_" gradientUnits="userSpaceOnUse" x1="355.1078" y1="259.7096" x2="355.1078" y2="158.9345">
							<stop  offset="0" style="stop-color:#000000"/>
							<stop  offset="0.4554" style="stop-color:#070707"/>
							<stop  offset="1" style="stop-color:#161616"/>
						</linearGradient>
						<path style="fill:url(#SVGID_00000106832043788531081470000014312527638716791471_);" d="M356.487,208.358
							c-0.267,1.588-0.778,3.658-1.28,5.645c-0.887-4.984-1.617-10.701-2.193-16.035c0.319,0.275,0.66,0.514,1.019,0.68
							c0.069,1.645,1.437,2.711,3.167,3.379C356.99,204.139,356.84,206.261,356.487,208.358z"/>
					</g>
				</g>
			</g>
		</g>
		<g>
			<g>
				
					<linearGradient id="SVGID_00000150807223644435584760000018245351399977397670_" gradientUnits="userSpaceOnUse" x1="393.3736" y1="307.0426" x2="393.3736" y2="162.3517">
					<stop  offset="0" style="stop-color:#4410B0"/>
					<stop  offset="0.3755" style="stop-color:#591FD3"/>
					<stop  offset="0.7771" style="stop-color:#6B2CF3"/>
					<stop  offset="1" style="stop-color:#7231FF"/>
				</linearGradient>
				<path style="fill:url(#SVGID_00000150807223644435584760000018245351399977397670_);" d="M413.803,178.549
					c-2.56,0.87-5.58,0.73-8.14-0.32c0.02,0.07,0.04,0.14,0.06,0.21c-0.24,0.86-0.47,1.71-0.72,2.55c-0.12,0.42-0.24,0.84-0.37,1.25
					c-0.04,0.15-0.09,0.31-0.14,0.46c-0.09,0.3-0.18,0.61-0.28,0.91c-0.23,0.76-0.47,1.51-0.72,2.25c-0.23,0.71-0.46,1.4-0.7,2.08
					c-0.29,0.84-0.59,1.66-0.89,2.47c-0.25,0.69-0.5,1.36-0.76,2.02c-0.16,0.4-0.32,0.8-0.48,1.2c-0.24,0.61-0.48,1.2-0.73,1.79
					c-0.18,0.42-0.36,0.84-0.54,1.26c-0.14,0.33-0.28,0.66-0.43,0.98c-0.43,0.96-0.86,1.91-1.3,2.83c-0.14,0.3-0.29,0.6-0.44,0.9
					c-0.14,0.3-0.29,0.6-0.44,0.89c-0.29,0.59-0.58,1.17-0.88,1.73c-1.47,2.82-2.96,5.35-4.42,7.62c-0.29,0.46-0.58,0.9-0.87,1.33
					c-0.29,0.43-0.58,0.86-0.87,1.27c-0.26,0.38-0.53,0.76-0.79,1.12c-0.03,0.03-0.05,0.06-0.06,0.08
					c-1.13,1.56-2.23,2.96-3.28,4.22c-0.02,0.01-0.03,0.03-0.04,0.05c-0.51,0.61-1,1.18-1.49,1.71c-0.25,0.28-0.49,0.54-0.73,0.8
					c-0.23,0.26-0.46,0.5-0.7,0.74c-0.04,0.05-0.08,0.09-0.12,0.13c-0.31,0.32-0.62,0.63-0.91,0.92c-0.32,0.31-0.62,0.6-0.91,0.87
					c-0.2,0.2-0.39,0.38-0.58,0.54c-2.25,2.06-3.65,2.94-3.65,2.94l0,0c0,0,0,0,0,0.001c-0.854,1.687-2.077,3.087-3.538,4.112
					c0.54,12.173,2.487,24.267,5.919,35.968c1.86,6.38,4.15,12.64,6.84,18.72c1.19,2.68,2.47,5.33,3.97,7.85
					c0.29-0.17,0.58-0.33,0.86-0.51c0.25-0.15,0.49-0.3,0.74-0.45c0.72-0.45,1.4-0.91,2.05-1.37c0,0.01,0,0.01,0,0.02
					c0.34-0.25,0.67-0.49,0.99-0.73c0-0.01,0-0.01,0-0.02c2.83-2.16,4.98-4.41,6.59-6.49c0.8-1.04,1.47-2.04,2.03-2.97
					c0.11-0.18,0.22-0.36,0.32-0.54c0.13-0.22,0.25-0.43,0.36-0.64c0.14-0.27,0.27-0.52,0.4-0.76c0.17-0.35,0.33-0.68,0.46-0.98
					c0.05-0.1,0.09-0.2,0.13-0.29c0.1-0.23,0.19-0.44,0.26-0.63c0.04-0.09,0.07-0.17,0.1-0.25c0.25-0.65,0.37-1.08,0.42-1.22
					c0.01-0.04,0.01-0.06,0.01-0.06s-1.5-3.33-5.83-10c-6.34-10-1.84-19.67-0.17-23.83c1.67-4.17,5.67-14.34,8.17-23.17
					c6.32-22.44,6.12-38.34,6.02-41.2C413.653,178.789,413.723,178.669,413.803,178.549z"/>
				
					<linearGradient id="SVGID_00000168105699016917797980000014153798352749663631_" gradientUnits="userSpaceOnUse" x1="340.3986" y1="307.0427" x2="340.3986" y2="162.3511">
					<stop  offset="0" style="stop-color:#4410B0"/>
					<stop  offset="0.3755" style="stop-color:#591FD3"/>
					<stop  offset="0.7771" style="stop-color:#6B2CF3"/>
					<stop  offset="1" style="stop-color:#7231FF"/>
				</linearGradient>
				<path style="fill:url(#SVGID_00000168105699016917797980000014153798352749663631_);" d="M348.893,267.109
					c0,0-0.895-2.134-1.408-4.878c-3.958,7.661-9.146,14.578-15.431,20.534c-0.192,0.182-0.181,0.405-0.075,0.578
					c0.009,0.045,0.013,0.089,0.035,0.135c2.242,4.607,6.546,8.816,11.476,10.688C344.273,286.171,348.893,267.109,348.893,267.109z
					"/>
				
					<linearGradient id="SVGID_00000011731378710580502160000003895586148657940387_" gradientUnits="userSpaceOnUse" x1="351.343" y1="307.0426" x2="351.343" y2="162.3512">
					<stop  offset="0" style="stop-color:#4410B0"/>
					<stop  offset="0.3755" style="stop-color:#591FD3"/>
					<stop  offset="0.7771" style="stop-color:#6B2CF3"/>
					<stop  offset="1" style="stop-color:#7231FF"/>
				</linearGradient>
				<path style="fill:url(#SVGID_00000011731378710580502160000003895586148657940387_);" d="M359.949,227.783
					c-1.165-0.287-1.868-0.557-2.764-1.034c-2.703-1.439-3.56-3.994-3.327-6.641c0.054-1.046,0.695-3.51,1.353-6.115
					c-2.538-14.268-3.797-34.564-3.797-34.564s0-0.01,0.01-0.01c-0.63,0.07-1.26,0.12-1.89,0.17c-1.44,0.1-2.91,0.11-4.33-0.15
					c-0.38-0.07-0.74-0.16-1.09-0.27c0.01,0.03,0.02,0.05,0.03,0.08c-4.66,34.85-1.9,62.32,3.74,75.33
					c3.721-8.148,7.635-16.279,13.021-23.478C360.322,230.06,360.008,229.059,359.949,227.783z"/>
			</g>
			
				<linearGradient id="SVGID_00000090294508806129823010000017380410955062550951_" gradientUnits="userSpaceOnUse" x1="366.5331" y1="301.5257" x2="366.5331" y2="231.1024">
				<stop  offset="0" style="stop-color:#000000"/>
				<stop  offset="0.4554" style="stop-color:#070707"/>
				<stop  offset="1" style="stop-color:#161616"/>
			</linearGradient>
			<path style="fill:url(#SVGID_00000090294508806129823010000017380410955062550951_);" d="M378.863,268.429
				c-3.432-11.701-5.379-23.795-5.919-35.968c-2.108,1.48-4.714,2.172-7.461,1.758c-2.174-0.327-3.685-1.516-4.58-3.117
				c-5.386,7.199-9.299,15.329-13.02,23.477c0,0.01,0.01,0.02,0.01,0.03c-2.17,5,1,12.5,1,12.5s-5.17,21.33-5.5,28.33
				c4.83,4.67,13.83,7.34,28.5,5.5c7.41-1.2,13.23-3.38,17.78-5.94c-1.5-2.52-2.78-5.17-3.97-7.85
				C383.013,281.069,380.723,274.809,378.863,268.429z"/>
			<path style="fill:#FFAD76;" d="M404.68,172.458c0,2.03,0.42,4.06,1,5.99c2.56,1.05,5.39,1.252,7.95,0.382
				c1.76-2.93,4.4-8.182,1.87-10.762c-0.12-1.57-0.7-3.18-1.99-3.8c-0.17-0.7-0.56-1.31-1.28-1.64c-0.82-0.36-1.64-0.1-2.13,0.49
				c-1.31,0.41-2.58,1.98-3.28,3.18c-1.03,1.74-2,3.31-2.12,5.38C404.69,171.938,404.68,172.198,404.68,172.458z"/>
			<path style="fill:#FFAD76;" d="M344.002,178.878c0.07,0.18,0.12,0.35,0.16,0.51c0.35,0.11,0.71,0.2,1.09,0.27
				c1.42,0.26,2.89,0.25,4.33,0.15c0.63-0.05,1.26-0.1,1.89-0.17c1.71-2.63,5.04-8.7,2.23-11.57c-0.12-1.57-0.71-3.18-2-3.8
				c-0.16-0.7-0.55-1.31-1.27-1.64c-0.83-0.36-1.64-0.1-2.14,0.49c-1.31,0.41-2.57,1.98-3.28,3.18c-1.03,1.74-1.99,3.31-2.11,5.38
				C342.762,174.098,343.282,176.568,344.002,178.878z"/>
		</g>
		<g>
			<path style="fill:#7231FF;" d="M372.958,397.959c0,0-7.055,8.723-13.634,11.723c4.42,2.333,15.866,0.943,23.599-3.057
				c1.734-3.667-0.599-8.667-0.599-8.667H372.958z"/>
			<path style="fill:#7231FF;" d="M444.389,320.777c0,0-0.5-5,2.167-7c3.5,0.667,13.667,3,21,3.5
				c1.833,3.167-17.241,7.038-17.5,7.667C448.703,323.591,444.389,320.777,444.389,320.777z"/>
			
				<linearGradient id="SVGID_00000025428207096636716230000002250375357852077475_" gradientUnits="userSpaceOnUse" x1="399.7535" y1="398.2633" x2="399.7535" y2="283.1884">
				<stop  offset="0" style="stop-color:#48D1F0"/>
				<stop  offset="0.0704" style="stop-color:#4FD2F2"/>
				<stop  offset="0.4509" style="stop-color:#6DD7F9"/>
				<stop  offset="0.7742" style="stop-color:#80DAFD"/>
				<stop  offset="1" style="stop-color:#87DBFF"/>
			</linearGradient>
			<path style="fill:url(#SVGID_00000025428207096636716230000002250375357852077475_);" d="M444.389,320.777
				c0,0-18.167,17.667-21.167,6.333c-2.776-10.488-9.181-35.86-20.728-43.922c-3.487,5.448-10.854,13.103-25.604,16.717
				c-0.119,0.029-0.24,0.057-0.36,0.086c-0.898,0.214-1.818,0.415-2.771,0.598c-0.618,0.12-1.224,0.246-1.867,0.35
				c-9.923,1.245-17.243,0.421-22.442-1.685c1.985,14.469,9.361,62.893,23.493,98.788c4.048,0.354,6.713,0.25,9.38-0.083
				c-0.311-7.162-1.686-50.159,2.146-75.98c2.702,3.182,13.968,15.34,23.787,22.395c0,0,6.511,4.633,10.368,5.426
				c4.952,1.506,9.917,1.255,14.431-2.023c7.534-5.471,13.5-14,17-22.833L444.389,320.777z"/>
		</g>
	</g>
</g>
</svg>
