<?xml version="1.0" encoding="utf-8"?>
<!-- Generator: Adobe Illustrator 27.5.0, SVG Export Plug-In . SVG Version: 6.00 Build 0)  -->
<svg version="1.1" id="Ñëîé_1" xmlns="http://www.w3.org/2000/svg" xmlns:xlink="http://www.w3.org/1999/xlink" x="0px" y="0px"
	 viewBox="0 0 562 562" style="enable-background:new 0 0 562 562;" xml:space="preserve">
<g id="_x31__11_">
	<circle style="fill:#E6ECFF;" cx="290.694" cy="273.089" r="203.204"/>
	<ellipse style="fill:#C7D1EA;" cx="290.694" cy="529.938" rx="122.615" ry="9.947"/>
	<path style="fill:#ED7E97;" d="M353.613,416.727c-3.798,17-9.404,35.989-13.744,53.169c-4.521,16.819-9.223,33.819-14.106,50.637
		c-2.351,9.042-16.638,6.33-15.734-2.894c4.34-33.638,8.319-70.35,11.755-104.169C323.593,392.855,356.145,396.111,353.613,416.727z
		"/>
	<path style="fill:#ED7E97;" d="M253.243,518.364c0.181,8.862-13.383,10.851-15.734,2.17c-4.883-16.819-9.585-33.638-14.106-50.637
		c-4.34-16.276-9.223-34.542-13.383-50.818c-5.245-21.883,28.936-28.031,31.468-5.606
		C245.104,447.833,249.083,484.365,253.243,518.364z"/>
	<path style="fill:#E26988;" d="M244.2,439.514l1.628,15.01c-18.808,6.33-26.585-0.723-26.585-0.723l-2.532-9.223
		c-2.17-8.5-4.521-16.819-6.691-25.319s2.894-17.361,11.574-19.532c8.5-2.17,17.361,2.894,19.532,11.574
		c0.181,0.723,0.362,1.447,0.362,2.351v0.181L244.2,439.514z"/>
	<path style="fill:#E26988;" d="M353.613,416.727c0,0.723-0.181,1.628-0.362,2.351c-2.17,8.5-4.34,17-6.691,25.319
		c0,0-11.936,12.659-29.117,7.596l1.808-12.659l2.713-25.861l0,0c0.904-8.862,8.862-15.191,17.542-14.287
		C348.188,400.089,354.518,408.047,353.613,416.727z"/>
	<path style="fill:#ED7E97;" d="M359.039,523.789C359.039,523.97,359.039,523.97,359.039,523.789
		c-3.798,9.042-47.382,13.021-49.01-4.34c0-0.181,0-0.543,0-0.723c0-0.181,0-0.362,0-0.723v-0.362l0,0
		c0-0.543,0.181-1.085,0.181-1.628c0-0.181,0-0.362,0.181-0.543l9.223-2.713l8.862-2.713h0.181
		c2.894,0.181,28.755,1.808,30.563,12.117C359.401,522.704,359.401,523.247,359.039,523.789z"/>
	<path style="fill:#F490AA;" d="M359.039,523.789C359.039,523.97,359.039,523.97,359.039,523.789c0,0-11.213-7.234-31.648-9.404
		c-0.543,0-1.085-0.181-1.628-0.181c-3.255-0.362-5.245-3.798-3.979-6.691l19.712-43.946l-1.628,6.33
		c-3.617,13.383-7.234,26.766-11.032,40.148c2.894,0.181,28.755,1.808,30.563,12.117
		C359.401,522.704,359.401,523.247,359.039,523.789z"/>
	<path style="fill:#ED7E97;" d="M253.243,518.364c0,0.904-0.181,1.808-0.362,2.713c-4.16,16.819-50.637,11.032-49.01,1.085
		c1.808-10.128,27.67-11.936,30.563-12.117c0.181,0,0.181,0,0.181,0l6.511,1.989l11.574,3.436c0,0.181,0,0.362,0.181,0.723
		c0.181,0.543,0.181,1.085,0.181,1.447l0,0v0.181C253.243,518.002,253.243,518.002,253.243,518.364
		C253.243,518.183,253.243,518.183,253.243,518.364z"/>
	<path style="fill:#F490AA;" d="M241.487,512.034c0.723,1.808-0.543,3.617-2.532,3.617c-0.904,0-1.808,0-2.713,0
		c-20.255,0.362-32.191,6.33-32.191,6.33c1.808-10.128,27.67-11.936,30.563-12.117c-3.798-13.383-7.415-26.766-11.032-40.148
		l-1.628-6.33L241.487,512.034L241.487,512.034z"/>
	<path style="fill:#E26988;" d="M253.062,520.896c-4.16,16.819-50.637,11.032-49.01,1.085
		C204.052,522.162,230.275,530.481,253.062,520.896z"/>
	<path style="fill:#E26988;" d="M359.039,523.97c-3.798,9.042-47.382,13.021-49.01-4.521c0.181,0,0.362,0,0.362,0
		S328.656,531.385,359.039,523.97z"/>
	<path style="fill:#BF4B6F;" d="M361.029,521.981c-1.918-10.392-23.331-12.726-30.398-13.253
		c3.967-14.007,7.733-27.723,10.505-38.288l6.691-25.319c2.351-8.5,4.521-17,6.691-25.5c0.362-0.723,0.543-1.809,0.543-2.532
		c0.542-4.521-0.904-9.223-3.798-12.84c-3.074-3.617-7.234-5.787-11.936-6.33c-4.521-0.542-9.223,0.904-12.84,3.798
		c-3.617,3.074-5.787,7.234-6.33,11.936l-2.713,25.861l-2.894,25.861c-1.628,15.373-3.798,33.457-6.149,51.723l0.031,0.003
		c-0.44,4.544,1.44,8.362,5.395,11.21c4.883,3.436,12.478,4.883,20.074,4.883c9.223,0,18.446-1.99,23.33-4.883
		C360.848,525.96,361.391,523.609,361.029,521.981z M355.422,525.417c-7.596,5.064-30.202,7.053-39.606,0.362
		c-3.436-2.532-4.702-5.788-3.798-9.947l0,0c2.531-18.447,4.16-34.904,5.607-49.914l2.894-26.042l2.713-26.042
		c0.362-3.979,2.171-7.415,5.245-9.766c2.893-2.351,6.691-3.436,10.489-3.074c3.979,0.362,7.415,2.171,9.766,5.245
		c2.351,2.893,3.436,6.691,3.074,10.489c0,0.723-0.181,1.447-0.362,2.17c-2.17,8.5-4.521,16.819-6.691,25.319l-6.691,25.319
		c-2.894,11.031-6.873,25.499-11.032,40.148c-0.051,0.255-0.054,0.507-0.019,0.746c0.017,0.2,0.075,0.385,0.172,0.548
		c0.183,0.347,0.492,0.607,0.932,0.695c0.265,0.053,0.528,0.054,0.774,0.014c7.884,0.265,27.462,3.015,28.884,10.656
		C357.954,523.608,356.507,524.694,355.422,525.417z"/>
	<path style="fill:#BF4B6F;" d="M255.032,517.1l0.02-0.002c-2.351-18.266-4.521-36.351-6.149-51.723l-2.894-25.861l-2.713-25.861
		v-0.181c-0.181-0.904-0.362-1.628-0.543-2.532c-2.532-9.404-12.117-15.01-21.521-12.659c-4.702,1.266-8.5,4.159-10.851,8.138
		c-2.351,4.16-2.893,8.862-1.808,13.383c2.17,8.681,4.521,17,6.691,25.5l6.691,25.319c2.832,10.796,6.948,23.639,11.022,37.914
		c-6.922,0.503-28.781,2.792-30.553,13.265c-0.181,1.628,0.181,3.979,3.798,6.33c4.702,3.075,13.926,5.064,23.149,5.064
		c7.595,0,15.191-1.447,20.255-5.064C253.531,525.475,255.408,521.602,255.032,517.1z M247.637,525.598
		c-9.404,6.51-31.83,4.521-39.606-0.362c-1.266-0.723-2.532-1.808-2.351-3.074c1.446-7.776,21.521-10.308,29.297-10.67
		c0.617,0,1.228-0.527,1.397-1.241c0.054-0.1,0.083-0.22,0.05-0.387c0-0.208-0.065-0.415-0.173-0.606
		c-4.107-14.44-8.368-28.662-11.222-39.541l-6.691-25.319c-2.351-8.319-4.521-16.819-6.691-25.319
		c-1.99-7.595,2.532-15.553,10.308-17.542c7.595-1.99,15.553,2.532,17.542,10.308c0.181,0.723,0.362,1.266,0.362,1.989l2.713,26.042
		l2.894,25.861c1.628,15.192,3.798,33.457,6.149,51.723l0.063-0.007C251.913,520.864,250.575,523.433,247.637,525.598z"/>
	<path style="fill:#ED7E97;" d="M492.49,373.391c-34.909,37.723-72.428,31.85-103.948,14.824c0.243-0.485,11.67-18.02,12.238-19.152
		c63.766,34.62,94.426-30.931,102.342-84.219c2.284-14.636,25.248-10.804,22.56,3.831
		C522.424,305.656,513.956,347.944,492.49,373.391z"/>
	<path style="fill:#F490AA;" d="M435.383,378.329c15.125-0.303,28.64-7.079,39.98-20.004c14.094-15.995,23.279-50.437,26.78-67.902
		c-0.082,0.97-2.551,32.914-12.205,54.576C480.205,366.824,457.938,385.8,435.383,378.329z"/>
	<path style="fill:#E26988;" d="M492.49,373.391c-23.652,26.982-50.831,29.533-69.591,27.001
		c-12.696-1.715-23.042-6.097-29.023-9.097c-3.233-1.622-5.253-2.838-5.415-2.919l1.459-2.101l11.588-16.645
		c2.667,1.54,12.608,6.73,25.303,8.445c0.566,0.082,1.132,0.163,1.536,0.164l0,0c0,0,3.378,13.835,20.442,14.909
		s50.568-14.49,75.997-100.268C522.423,306.464,512.417,350.61,492.49,373.391z"/>
	<path style="fill:#ED7E97;" d="M510.966,285.744c0.486-0.161,1.861-0.887,3.805-2.745c0.648-0.484,1.215-1.212,1.782-1.939
		c1.863-2.1,3.808-5.171,5.512-9.374c1.38-3.557,2.599-8.003,3.334-13.502c0.328-3.073-1.852-5.987-4.925-6.315
		c-2.507-0.246-4.854,1.207-5.909,3.308c-0.243,0.485-0.325,1.051-0.407,1.617c-1.308,10.674-4.793,15.603-6.575,17.542
		c-0.486,0.565-1.053,0.888-1.134,1.05l0.243-0.081L510.966,285.744z"/>
	<path style="fill:#ED7E97;" d="M507.001,287.599c2.344,0.974,4.933,0.249,6.472-1.609c0.405-0.404,0.729-1.05,0.973-1.535
		c0.243-0.485,0.325-1.051,0.325-1.455c0.246-2.507-1.126-5.016-3.47-5.99c-1.536-0.568-2.829-1.621-3.878-2.755
		c-0.808-0.81-1.534-1.781-1.938-2.591c-1.453-2.347-2.178-4.532-2.097-4.694c-0.886-3.075-3.876-4.777-6.869-4.053
		c-2.993,0.724-4.777,3.876-4.053,6.869l0,0C492.546,270.434,495.926,283.055,507.001,287.599z"/>
	<path style="fill:#ED7E97;" d="M523.495,291.423c-2.267,2.1-5.907,2.095-8.007-0.172c-2.1-2.267-2.095-5.907,0.172-8.007
		c1.944-1.858,2.511-2.989,2.836-3.636c-1.858-1.944-2.258-4.775-0.719-7.037c1.702-2.586,5.342-3.39,7.928-1.688
		c1.859,1.135,3.958,3.807,4.196,7.365c0.238,3.559-1.142,7.116-4.301,10.994C525.115,289.807,524.305,290.615,523.495,291.423z
		 M519.547,280.337L519.547,280.337L519.547,280.337z"/>
	<path style="fill:#BF4B6F;" d="M525.113,290.616c-0.162-0.081-0.162-0.081-0.323-0.162c-0.727-0.567-0.733-2.321-0.004-2.967
		c2.916-3.393,4.06-5.924,3.821-9.079c-0.319-2.993-2.015-5.26-3.55-6.232c-0.565-0.486-1.293-0.649-2.102-0.65
		c-0.809-0.001-1.616-0.811-1.615-1.62c0.001-0.809,0.811-1.616,1.62-1.615c1.375,0.083,2.587,0.489,3.638,1.218
		c2.101,1.459,4.685,4.374,5.003,8.58c0.399,4.044-1.224,8.086-4.626,12.045C526.488,290.699,525.599,290.859,525.113,290.616z"/>
	<path style="fill:#F490AA;" d="M521.904,272.01l0.162-0.323c1.38-3.557,2.599-8.003,3.334-13.502
		c0.328-3.073-1.852-5.987-4.925-6.315c-2.507-0.246-4.854,1.207-5.909,3.308C515.456,255.017,524.839,253.654,521.904,272.01z"/>
	<path style="fill:#F490AA;" d="M492.385,269.948c0.729-1.05,4.294-5.332,13.1,1.716c-1.453-2.347-2.178-4.532-2.097-4.694
		c-0.886-3.075-3.876-4.777-6.869-4.053C493.445,263.803,491.5,266.874,492.385,269.948z"/>
	<path style="fill:#BF4B6F;" d="M506.939,275.909c0.89-1.825-0.569-0.361-0.731-0.442c-0.727-0.567-0.645-1.538-0.078-2.265
		c1.701-1.777,5.023-6.383,6.25-16.491c0.164-1.941,1.218-3.638,2.837-4.849c1.619-1.211,3.48-1.694,5.421-1.529
		c1.941,0.164,3.638,1.218,4.849,2.837s1.694,3.48,1.529,5.421c-0.736,5.903-2.118,11.077-4.064,15.361
		c-0.405,0.808-1.215,1.212-2.023,0.806c-0.808-0.405-1.212-1.215-0.806-2.023c1.866-4.122,3.085-8.973,3.821-14.472
		c0.163-1.132-0.159-2.103-0.886-3.075c-0.565-0.89-1.697-1.458-2.667-1.54c-1.132-0.163-2.103,0.159-3.075,0.886
		c-0.89,0.565-1.458,1.696-1.54,2.667c-1.39,11.24-5.029,16.268-7.054,18.287C508.414,275.715,507.586,276.233,506.939,275.909z"/>
	<path style="fill:#BF4B6F;" d="M502.149,286.784l-0.162-0.081c-8.404-5.834-11.059-15.867-11.22-16.352
		c-0.483-1.861-0.318-3.802,0.735-5.499c1.054-1.697,2.511-2.989,4.534-3.391c3.964-1.046,7.843,1.305,8.89,5.269
		c0,0,0.842,3.891,3.508,6.644c0.646,0.729,0.849,1.611,0.201,2.096c-0.729,0.646-1.942,0.645-2.427-0.003
		c-3.15-3.401-4.195-7.77-4.276-8.013c-0.563-2.104-2.907-3.482-5.011-2.918c-1.133,0.241-1.942,1.049-2.591,1.938
		c-0.487,0.97-0.65,2.102-0.328,3.073c-0.001,0.404,2.72,9.011,10.073,14.116c0.727,0.567,0.744,1.831,0.338,2.639
		C503.928,286.867,502.957,287.19,502.149,286.784z"/>
	<path style="fill:#BF4B6F;" d="M393.227,392.589c-3.395-1.703-5.415-2.919-5.577-3c-0.323-0.162-0.565-0.486-0.727-0.971
		c0.001-0.404,0.001-0.809,0.163-1.132l12.157-18.99c0.081-0.162,0.081-0.162,0.162-0.323c0.567-0.727,1.457-0.888,2.265-0.482
		c0.162,0.081,10.99,6.728,25.384,8.688c18.275,2.289,34.055-4.16,47.177-19.024c15.552-17.691,25.069-58.441,27.515-72.592
		c0.244-0.889,0.973-1.535,1.862-1.292c0.889,0.244,1.535,0.973,1.292,1.862c-2.446,14.555-12.287,55.951-28.326,74.208
		c-13.77,15.753-30.521,22.524-49.928,20.072c-12.13-1.634-21.748-6.257-25.223-8.202l-10.536,16.566
		c0.97,0.487,2.182,1.297,3.798,2.108c6.304,3.163,16.409,7.22,28.538,8.854c18.194,2.451,44.887,0.06,68.135-26.518
		c23.004-26.093,32.46-81.643,32.787-83.907c0.244-0.889,0.973-1.535,1.862-1.292c0.889,0.244,1.535,0.973,1.292,1.862
		c-0.408,2.426-10.026,58.704-33.598,85.524c-24.138,27.547-51.964,30.179-70.886,27.565
		C410.201,400.295,399.693,395.832,393.227,392.589z"/>
	<path style="fill:#FC9DB8;" d="M471.724,350.537c0,27.127-22.064,49.191-49.191,49.191c-0.543,0-1.266,0-1.808,0
		c-5.787,20.617-24.776,35.808-47.382,35.808c-9.042,0-17.542-2.351-24.776-6.691c-9.042,12.298-23.51,20.255-39.787,20.255
		c-13.021,0-24.776-5.064-33.457-13.202c-8.862,8.138-20.617,13.202-33.457,13.202c-15.372,0-29.117-7.053-38.159-18.085
		c-6.33,2.894-13.202,4.521-20.617,4.521c-19.532,0-36.35-11.393-44.308-27.67c-0.543-1.266-1.266-2.532-1.628-3.979l0,0
		c-1.266,0.181-2.713,0.543-3.979,0.723c-1.808,0.181-3.798,0.362-5.787,0.362c-19.532,0-36.35-11.393-44.308-27.851
		c-3.074-6.511-4.883-13.744-4.883-21.521c0-8.862,2.351-17,6.33-24.234c-6.511-8.319-10.308-18.808-10.308-30.202
		c0-22.606,15.372-41.776,36.17-47.563c-1.266-4.34-1.808-8.862-1.808-13.564c0-27.127,22.063-49.191,49.191-49.191
		c6.872,0,13.564,1.447,19.532,3.979c3.798-23.51,24.053-41.595,48.648-41.595c16.095,0,30.382,7.776,39.425,19.712l0,0
		c8.5-14.649,25.499-24.415,43.584-24.415c25.68,0,46.84,19.712,49.01,44.85c4.883-1.628,10.128-2.532,15.553-2.532
		c27.127,0,49.191,22.063,49.191,49.191c0,0.362,0,0.723,0,1.266c3.798,0.904,7.415,2.17,10.67,3.798
		c16.457,7.957,27.67,24.776,27.67,44.308c0,8.681-2.17,16.819-6.149,23.872C465.214,322.505,471.724,335.707,471.724,350.537z"/>
	<path style="fill:#FFA6BD;" d="M448.937,327.75c0,27.127-22.063,49.191-49.191,49.191c-0.543,0-1.266,0-1.809,0
		c-5.787,20.617-24.776,35.808-47.382,35.808c-9.042,0-17.542-2.351-24.776-6.691c-9.042,12.298-23.51,20.255-39.787,20.255
		c-13.021,0-24.776-5.064-33.457-13.202c-8.862,8.138-20.617,13.202-33.457,13.202c-15.372,0-29.117-7.053-38.159-18.085
		c-6.33,2.894-13.202,4.521-20.617,4.521c-7.776,0-15.01-1.808-21.521-4.883c-1.989-0.904-3.979-2.17-5.787-3.255
		c-8.5-5.606-15.01-13.744-18.627-23.329l0,0c-3.436,0.723-7.234,1.085-10.851,0.904c-7.234-0.181-14.287-1.989-20.436-4.883
		c-3.074-6.511-4.883-13.744-4.883-21.521c0-8.862,2.351-17,6.33-24.234l0,0c-6.511-8.319-10.308-18.808-10.308-30.202
		c0-22.606,15.372-41.776,36.17-47.563c-1.266-4.34-1.808-8.862-1.808-13.564c0-27.127,22.063-49.191,49.191-49.191
		c6.872,0,13.564,1.447,19.532,3.979c3.798-23.51,24.053-41.595,48.648-41.595c16.095,0,30.382,7.776,39.425,19.712
		c0.362,0,0.723,0,1.085,0c8.5-14.649,24.415-24.414,42.499-24.414c25.68,0,46.84,19.712,49.01,44.85
		c4.883-1.628,10.128-2.532,15.553-2.532c27.127,0,49.191,22.063,49.191,49.191l0,0c0,0.362,0,0.723,0,1.266
		c3.798,0.904,7.415,2.17,10.67,3.798c3.074,6.511,4.883,13.744,4.883,21.521c0,8.681-2.17,16.819-6.149,23.872
		C442.427,299.538,448.937,312.921,448.937,327.75z"/>
	<path style="fill:#FFB8CC;" d="M422.533,240.22c-16.457-53.169-68.361-38.34-68.361-38.34s-5.606-28.212-36.712-36.712
		c-30.925-8.319-50.457,18.627-50.457,18.627s-16.276-17.542-43.404-14.649c-27.127,2.894-37.978,37.978-37.978,37.978
		s-22.968-7.957-49.01,5.606c-25.861,13.564-19.712,50.457-19.712,50.457c-51.903,27.127-33.095,67.637-32.914,68.18
		c-6.511-8.319-10.308-18.808-10.308-30.202c0-22.606,15.372-41.776,36.17-47.563c-1.266-4.34-1.808-8.862-1.808-13.564
		c0-27.127,22.063-49.191,49.191-49.191c6.872,0,13.564,1.447,19.532,3.979c3.798-23.51,24.053-41.595,48.648-41.595
		c16.095,0,30.382,7.776,39.425,19.712c0.362,0,0.723,0,1.085,0c8.5-14.649,24.415-24.415,42.499-24.415
		c25.68,0,46.84,19.712,49.01,44.85c4.883-1.628,10.128-2.532,15.553-2.532C400.47,191.029,422.533,213.092,422.533,240.22z"/>
	<path style="fill:#ED7E97;" d="M287.802,424.504c-0.723-0.543-0.723-1.628-0.181-2.17c8.681-10.67,0-27.489-0.181-27.67
		c-0.362-0.723-0.181-1.628,0.362-1.989c13.744-10.489,21.34-22.064,22.968-34.361c1.808-15.191-6.872-26.223-6.872-26.404
		c-0.543-0.543-0.543-1.447,0.181-2.17c18.627-19.351,0.723-42.499-0.181-43.584c-0.543-0.723-0.362-1.628,0.181-2.17
		c0.723-0.543,1.628-0.362,2.17,0.181c0.181,0.181,19.712,25.5,0.723,46.659c2.351,3.255,8.319,13.744,6.691,27.489
		c-1.628,12.84-9.223,24.776-23.149,35.627c1.989,4.34,7.957,19.351-0.723,30.021C289.009,424.97,288.164,424.685,287.802,424.504z"
		/>
	<path style="fill:#BF4B6F;" d="M308.78,450.6c-12.415,0-24.246-4.493-33.467-12.681c-9.391,8.188-21.214,12.681-33.447,12.681
		c-14.899,0-28.896-6.457-38.582-17.756c-6.448,2.782-13.236,4.192-20.194,4.192c-19.267,0-37.188-11.191-45.656-28.511
		c-0.181-0.417-0.345-0.767-0.511-1.12c-0.264-0.561-0.549-1.168-0.798-1.818c-0.219,0.043-0.439,0.087-0.66,0.131
		c-0.709,0.142-1.418,0.283-2.08,0.377c-1.842,0.187-3.917,0.377-5.998,0.377c-19.604,0-37.099-10.996-45.659-28.697
		c-3.341-7.079-5.032-14.535-5.032-22.175c0-8.381,2.035-16.48,6.049-24.092c-6.563-8.728-10.027-19.198-10.027-30.344
		c0-22.251,14.662-42.018,35.835-48.587c-0.99-3.886-1.473-8.005-1.473-12.54c0-27.951,22.74-50.691,50.691-50.691
		c6.221,0,12.536,1.171,18.382,3.399c4.733-23.876,25.387-41.016,49.798-41.016c15.315,0,29.507,6.75,39.27,18.596
		c9.182-14.22,26.104-23.299,43.739-23.299c25.459,0,47.204,19.343,50.311,44.371c4.642-1.363,9.427-2.053,14.253-2.053
		c27.951,0,50.69,22.74,50.69,50.691v0.093c3.563,0.924,6.869,2.143,9.842,3.629c17.572,8.496,28.499,25.991,28.499,45.65
		c0,8.332-1.991,16.45-5.769,23.559c10.61,9.916,16.438,23.211,16.438,37.57c0,27.951-22.74,50.69-50.691,50.69h-0.685
		c-6.457,21.141-26.238,35.809-48.505,35.809c-8.713,0-17.111-2.149-24.381-6.228C339.318,443.226,324.397,450.6,308.78,450.6z
		 M275.323,434.398c0.369,0,0.738,0.136,1.026,0.405c8.802,8.252,20.319,12.797,32.431,12.797c15.113,0,29.535-7.344,38.579-19.644
		c0.459-0.623,1.318-0.795,1.979-0.397c7.064,4.237,15.365,6.478,24.005,6.478c21.311,0,40.2-14.275,45.938-34.714
		c0.182-0.647,0.772-1.095,1.444-1.095h1.808c26.297,0,47.691-21.394,47.691-47.69c0-13.887-5.796-26.722-16.318-36.14
		c-0.525-0.47-0.652-1.242-0.307-1.855c3.896-6.905,5.956-14.905,5.956-23.134c0-18.498-10.278-34.958-26.823-42.958
		c-3.103-1.551-6.584-2.79-10.364-3.689c-0.677-0.161-1.153-0.765-1.153-1.459v-1.266c0-26.297-21.394-47.691-47.69-47.691
		c-5.12,0-10.193,0.826-15.078,2.455c-0.438,0.146-0.914,0.083-1.299-0.169c-0.384-0.252-0.631-0.667-0.67-1.125
		c-2.104-24.381-22.977-43.479-47.517-43.479c-17.345,0-33.943,9.29-42.286,23.668c-0.252,0.434-0.705,0.713-1.206,0.744
		c-0.5,0.034-0.984-0.191-1.288-0.591c-9.205-12.15-23.139-19.118-38.229-19.118c-23.555,0-43.391,16.963-47.167,40.334
		c-0.074,0.455-0.352,0.851-0.756,1.074c-0.402,0.223-0.886,0.249-1.311,0.068c-5.952-2.525-12.503-3.86-18.946-3.86
		c-26.297,0-47.691,21.394-47.691,47.691c0,4.812,0.572,9.112,1.748,13.144c0.112,0.385,0.066,0.799-0.129,1.149
		c-0.195,0.351-0.522,0.608-0.909,0.716c-20.649,5.746-35.072,24.71-35.072,46.118c0,10.804,3.454,20.928,9.989,29.277
		c0.37,0.474,0.422,1.121,0.133,1.647c-4.077,7.413-6.145,15.323-6.145,23.512c0,7.193,1.595,14.219,4.739,20.881
		c8.049,16.643,24.51,26.99,42.953,26.99c1.943,0,3.928-0.184,5.637-0.354c0.548-0.079,1.2-0.211,1.852-0.341
		c0.704-0.141,1.408-0.281,2.065-0.375c0.761-0.102,1.481,0.376,1.667,1.121c0.222,0.89,0.614,1.724,1.03,2.607
		c0.181,0.385,0.359,0.765,0.522,1.146c7.937,16.229,24.8,26.761,42.929,26.761c6.902,0,13.629-1.476,19.993-4.386
		c0.619-0.283,1.353-0.114,1.784,0.413c9.134,11.145,22.619,17.536,36.999,17.536c11.928,0,23.45-4.548,32.442-12.807
		C274.595,434.53,274.96,434.398,275.323,434.398z"/>
	<path style="fill:#FFFFFF;" d="M197.739,282.176c-7.957,19.712-0.904,41.053,15.553,47.563c16.457,6.511,36.17-4.159,43.946-23.872
		c7.957-19.712,0.904-41.053-15.553-47.563S205.697,262.464,197.739,282.176z"/>
	<path style="fill:#BF4B6F;" d="M223.42,333.175c-3.617,0-7.234-0.723-10.67-1.989c-17.181-6.872-24.595-29.117-16.457-49.733l0,0
		c3.979-9.947,10.851-17.904,19.532-22.606s18.085-5.425,26.585-2.17c17.181,6.872,24.595,29.117,16.457,49.733
		c-3.979,9.947-10.851,17.904-19.532,22.606C234.09,331.729,228.664,333.175,223.42,333.175z M231.558,257.943
		c-4.702,0-9.585,1.266-14.287,3.798c-7.957,4.34-14.468,11.755-18.085,20.978l0,0c-7.596,18.808-0.904,39.244,14.649,45.574
		c7.415,3.074,15.915,2.351,23.872-1.989s14.468-11.755,18.085-20.978c7.596-18.808,0.904-39.244-14.649-45.574
		C238.068,258.485,234.813,257.943,231.558,257.943z M197.739,282.176L197.739,282.176L197.739,282.176z"/>
	
		<ellipse transform="matrix(0.1378 -0.9905 0.9905 0.1378 -101.6152 481.7403)" style="fill:#22213F;" cx="225.896" cy="299.236" rx="24.057" ry="20.801"/>
	<path style="fill:#FFFFFF;" d="M226.313,290.134c-1.266,3.074-5.064,4.521-8.681,3.074s-5.425-5.064-4.16-8.138
		c1.266-3.074,5.064-4.521,8.681-3.074C225.59,283.442,227.398,287.059,226.313,290.134z"/>
	<path style="fill:#FFFFFF;" d="M388.534,279.283c8.319,19.532,1.808,41.053-14.468,47.925s-36.17-3.255-44.489-22.787
		c-8.319-19.532-1.809-41.053,14.468-47.925C360.141,249.443,380.215,259.751,388.534,279.283z"/>
	<path style="fill:#BF4B6F;" d="M363.396,330.825c-14.106,0-28.574-9.947-35.265-25.861c-8.681-20.255-1.808-42.68,15.191-50.095
		c17-7.234,37.978,3.255,46.659,23.691c8.681,20.255,1.809,42.68-15.191,50.095C370.992,330.101,367.194,330.825,363.396,330.825z
		 M354.715,255.773c-3.436,0-6.872,0.723-10.128,1.989c-15.372,6.511-21.521,27.127-13.564,45.755
		c7.957,18.628,26.946,28.574,42.499,21.883c15.372-6.511,21.521-27.127,13.564-45.755l0,0
		C380.758,264.996,367.556,255.773,354.715,255.773z"/>
	
		<ellipse transform="matrix(0.9871 -0.1604 0.1604 0.9871 -42.8516 60.6786)" style="fill:#22213F;" cx="354.431" cy="295.771" rx="20.802" ry="24.057"/>
	<path style="fill:#FFFFFF;" d="M339.705,283.442c-1.266,3.074,0.723,6.691,4.159,8.138c3.617,1.447,7.415,0,8.681-3.074
		c1.266-3.074-0.723-6.691-4.159-8.138C344.77,278.921,340.971,280.368,339.705,283.442z"/>
	<path style="fill:#ED7E97;" d="M331.748,218.879c10.489,3.617,20.436,2.713,22.064-1.989c1.628-4.883-5.425-11.755-15.915-15.372
		c-10.489-3.617-20.436-2.713-22.063,1.989C314.205,208.209,321.259,215.082,331.748,218.879z"/>
	<path style="fill:#BF4B6F;" d="M344.046,222.677c-3.979,0-8.319-0.904-12.659-2.351c-5.245-1.808-9.947-4.521-13.202-7.596
		c-3.436-3.436-4.883-6.872-3.798-9.766c1.085-2.894,4.34-4.883,9.042-5.245c4.34-0.362,9.766,0.362,15.01,2.17
		c5.245,1.808,9.947,4.521,13.202,7.596c3.436,3.436,4.883,6.872,3.798,9.766c-1.085,2.894-4.34,4.883-9.042,5.245
		C345.673,222.677,344.77,222.677,344.046,222.677z M325.78,200.614c-0.723,0-1.447,0-1.989,0.181
		c-3.436,0.362-5.787,1.447-6.33,3.074c-0.543,1.628,0.543,3.979,3.074,6.511c2.894,2.713,7.053,5.245,11.936,6.872
		c4.883,1.628,9.766,2.532,13.744,2.17c3.436-0.362,5.787-1.447,6.33-3.074c0.543-1.628-0.543-3.979-3.074-6.511
		c-2.894-2.713-7.053-5.245-11.936-6.872C333.375,201.337,329.397,200.614,325.78,200.614z"/>
	<path style="fill:#ED7E97;" d="M254.345,227.56c10.308-4.34,17-11.755,15.01-16.457c-1.989-4.702-11.936-5.064-22.244-0.723
		c-10.308,4.34-17,11.755-15.01,16.457C234.09,231.539,244.036,231.901,254.345,227.56z"/>
	<path style="fill:#BF4B6F;" d="M240.781,232.262c-0.181,0-0.543,0-0.723,0c-4.883-0.181-8.138-1.808-9.404-4.702
		c-1.266-2.894,0-6.511,3.255-10.128c3.074-3.255,7.415-6.33,12.659-8.5c11.213-4.702,21.883-4.16,24.234,1.628
		c2.351,5.606-4.521,13.744-15.915,18.447l0,0C250.004,231.177,244.941,232.262,240.781,232.262z M260.494,208.933
		c-3.617,0-7.957,0.904-12.84,2.894c-4.702,1.989-8.862,4.702-11.574,7.596c-2.351,2.532-3.255,5.064-2.532,6.691
		c0.723,1.628,3.074,2.713,6.511,2.713c3.979,0.181,8.862-0.904,13.564-2.894l0,0c10.128-4.34,15.553-11.032,14.106-14.287
		C267.004,210.018,264.473,208.933,260.494,208.933z M254.345,227.56L254.345,227.56L254.345,227.56z"/>
	<path style="fill:#ED7E97;" d="M207.867,197.178c-0.362,0-0.543,0-0.904-0.362c-0.723-0.543-0.904-1.447-0.362-2.17
		c0.181-0.181,12.659-18.085,33.457-9.223c0.723,0.362,1.266,1.266,0.904,2.17c-0.362,0.723-1.266,1.266-2.17,0.904
		c-18.447-7.776-29.117,7.415-29.659,8.138C208.952,196.816,208.409,197.178,207.867,197.178z"/>
	<path style="fill:#ED7E97;" d="M223.781,401.717c-3.617,0-14.468-1.085-18.447-13.383c-0.181-0.904,0.181-1.808,1.085-1.989
		c0.904-0.181,1.808,0.181,1.989,1.085c3.798,12.117,15.553,11.213,16.095,11.032c0.904,0,1.628,0.543,1.808,1.447
		c0,0.904-0.543,1.628-1.447,1.809C224.866,401.536,224.505,401.717,223.781,401.717z"/>
	<path style="fill:#ED7E97;" d="M336.27,417.812c-2.17,0-4.521-0.362-7.234-1.447c-0.904-0.362-1.266-1.266-0.904-1.989
		c0.362-0.904,1.266-1.266,1.989-0.904c11.936,4.521,18.447-5.425,18.627-5.787c0.543-0.723,1.447-0.904,2.17-0.543
		c0.723,0.543,0.904,1.447,0.543,2.17C351.641,409.313,346.216,417.812,336.27,417.812z"/>
	<path style="fill:#ED7E97;" d="M168.442,348.728c-0.181,0-0.362,0-0.543-0.181c-0.181,0-13.925-5.425-11.574-20.617
		c0.181-0.904,0.904-1.447,1.808-1.266c0.904,0.181,1.447,0.904,1.266,1.808c-1.989,12.659,9.042,17,9.404,17.181
		c0.904,0.362,1.266,1.266,0.904,1.989C169.708,348.367,168.984,348.728,168.442,348.728z"/>
	<path style="fill:#ED7E97;" d="M385.279,360.122c-0.904,0-1.628-0.723-1.628-1.447c0-0.904,0.543-1.628,1.447-1.628
		c12.84-0.723,14.468-12.479,14.649-13.021c0.181-0.904,0.904-1.447,1.808-1.447c0.904,0.181,1.447,0.904,1.447,1.808
		C402.821,344.569,400.651,359.218,385.279,360.122L385.279,360.122z"/>
	<path style="fill:#ED7E97;" d="M139.506,272.23c-0.904,0-1.628-0.723-1.628-1.628c-0.543-20.978,15.553-26.042,20.074-27.127
		c1.628-7.596,5.064-13.383,10.128-16.819c8.138-5.425,17.361-3.436,17.904-3.436c0.904,0.181,1.447,1.085,1.266,1.808
		c-0.181,0.904-1.085,1.447-1.808,1.266c-0.181,0-8.5-1.628-15.372,2.894c-4.702,3.074-7.596,8.5-9.042,15.734
		c-0.181,0.723-0.723,1.266-1.447,1.266c-0.723,0.181-18.989,2.713-18.447,24.053C141.134,271.506,140.41,272.23,139.506,272.23
		L139.506,272.23z"/>
	<path style="fill:#ED7E97;" d="M430.129,280.91c-0.181,0-0.362,0-0.543,0c-0.904-0.181-1.266-1.085-1.085-1.989
		c0,0,2.532-8.319-1.628-15.553c-2.713-4.883-7.776-8.319-14.83-10.308c-0.723-0.181-1.085-0.723-1.266-1.447
		c0-0.723-1.085-19.17-22.244-20.436c-0.904,0-1.628-0.723-1.447-1.628c0-0.904,0.723-1.628,1.628-1.447
		c20.978,1.266,24.595,17.723,25.138,22.425c7.415,2.17,12.84,6.149,15.915,11.574c4.702,8.5,1.989,17.723,1.808,18.085
		C431.576,280.368,430.853,280.91,430.129,280.91z"/>
	<path style="fill:#ED7E97;" d="M229.749,423.057c-0.904,0-1.808,0-2.532-0.181c-6.511-1.085-10.851-5.787-12.479-7.776
		c-20.978,4.702-28.393-15.915-28.393-16.095c-0.362-0.904,0.181-1.808,0.904-1.989c0.904-0.362,1.808,0.181,1.989,0.904
		s6.872,18.808,25.68,13.744c0.723-0.181,1.447,0.181,1.808,0.723c0,0,3.979,6.149,11.032,7.234
		c4.702,0.723,9.947-1.085,15.191-5.606c0.723-0.543,1.628-0.543,2.17,0.181c0.542,0.724,0.543,1.628-0.181,2.17
		C239.877,420.887,234.813,423.057,229.749,423.057z"/>
	<path style="fill:#ED7E97;" d="M375.151,417.632c-6.511,0-11.574-1.628-11.755-1.628c-0.904-0.181-1.266-1.085-1.085-1.989
		s1.085-1.266,1.989-1.085c1.085,0.362,25.138,7.776,32.553-13.021c0.362-0.904,1.266-1.266,1.989-0.904
		c0.904,0.362,1.266,1.266,0.904,1.989C395.045,414.738,383.832,417.632,375.151,417.632z"/>
	<path style="fill:#ED7E97;" d="M424.885,310.389c-0.181,0-0.362,0-0.362,0c-0.904-0.181-1.266-1.085-1.085-1.989
		c0.362-1.085,7.053-25.5-13.925-32.191c-0.904-0.181-1.266-1.085-1.085-1.989c0.181-0.904,1.085-1.266,1.989-1.085
		c23.872,7.776,16.095,35.808,16.095,36.17C426.15,310.027,425.608,310.389,424.885,310.389z"/>
	<path style="fill:#ED7E97;" d="M152.527,412.387c-61.308,23.329-95.307-6.872-58.052-70.531
		c14.468-22.244,20.255-42.318,36.531-28.031c5.064,9.223,0.904,11.574-5.425,21.159c-9.766,13.021-26.946,46.659-23.51,57.148
		c5.245,10.489,28.574,3.074,40.872-0.362C155.24,387.068,163.921,405.876,152.527,412.387z"/>
	<path style="fill:#ED7E97;" d="M164.463,379.292c-0.362,0.723-0.723,1.266-1.266,1.808c-0.543,0.362-1.085,0.723-1.628,1.085
		c-1.085,0.543-2.17,0.904-3.074,1.447l0,0c-1.085,0.723-2.17,1.447-2.894,2.17l0,0c-1.447,1.447-2.351,2.894-3.074,4.159
		c-1.085,2.351-1.085,4.159-1.085,4.521l0,0l-3.979,0.181l-7.415,0.181c0-0.362,0-3.436,1.266-7.415
		c1.808-5.245,5.968-11.936,15.915-16.095c2.894-1.266,6.33,0.181,7.415,3.074C165.367,376.398,165.187,378.026,164.463,379.292z"/>
	<path style="fill:#ED7E97;" d="M171.878,386.345c0,1.628-0.904,3.255-2.351,4.34c-0.362,0.362-0.904,0.543-1.266,0.723
		c-0.543,0.181-1.085,0.543-1.628,0.723c-1.266,0.723-2.532,1.266-3.436,1.989c-4.34,3.074-5.968,6.691-6.149,7.415l-7.053-2.17
		l-3.979-1.266c0-0.181,0.543-1.447,1.447-3.255c0.723-1.266,1.808-3.074,3.255-4.702c0.362-0.543,0.904-0.904,1.266-1.447
		c1.989-1.989,4.34-3.979,7.415-5.787c1.085-0.543,2.351-1.266,3.617-1.809c0.362-0.181,0.543-0.181,0.904-0.362
		c2.894-1.085,6.33,0.362,7.415,3.255C171.697,384.717,171.878,385.621,171.878,386.345z"/>
	<path style="fill:#ED7E97;" d="M174.048,400.451L174.048,400.451c-0.362,0.362-0.723,0.543-1.085,0.904
		c-0.723,0.543-1.628,0.723-2.713,0.904c-8.862,0.543-15.01,7.957-15.191,8.138c-1.989,2.532-5.606,2.894-7.957,0.904
		c-2.532-1.989-2.894-5.606-0.904-7.957c0.181-0.181,1.447-1.628,3.617-3.617c1.808-1.628,4.16-3.436,7.234-5.064l0,0
		c3.436-1.808,7.596-3.436,12.479-3.617l0,0c0,0,0,0,0.181,0c0.723,0,1.447,0,2.17,0.181c2.17,0.723,3.798,2.713,3.979,5.064
		C175.676,397.738,175.133,399.366,174.048,400.451z"/>
	<path style="fill:#ED7E97;" d="M304.62,258.485c-0.904-0.362-1.266-1.266-1.085-1.989c9.947-30.021-14.106-41.776-15.191-42.318
		c-0.543-0.362-0.904-0.904-0.904-1.628c0.904-11.393-0.904-19.893-5.787-24.957c-3.558-3.832-7.944-4.764-10.181-4.991
		c-0.803-0.081-1.429-0.726-1.474-1.533l0,0c-0.055-0.991,0.776-1.806,1.764-1.717c2.819,0.254,7.915,1.329,12.061,5.89
		c5.245,5.606,7.415,14.468,6.691,26.223c4.883,2.713,25.5,16.457,15.915,45.574C306.179,258.485,304.801,258.485,304.62,258.485z"
		/>
	<path style="fill:#F490AA;" d="M138.964,416.727c-2.713,0.723-5.606,1.266-8.862,1.809c-16.095,2.894-28.936,1.628-37.616-3.436
		c-7.053-4.159-11.574-10.67-13.021-18.989c-2.351-13.744,2.532-32.01,15.01-54.254c8.681-15.553,17.904-27.67,18.266-28.212
		c3.798-5.064,11.032-5.968,15.915-2.17c0.904,0.723,1.628,1.447,2.351,2.351l0,0c0,0-8.681-3.617-18.627,12.84
		c-9.766,16.457-32.372,56.425-23.329,75.956C98.092,421.972,138.059,416.727,138.964,416.727z"/>
	<path style="fill:#E26988;" d="M136.793,393.76c-43.404,17.723-44.85,4.159-36.531-22.425
		c8.319-26.585,32.553-52.988,32.553-52.988l0,0l0.181,3.074c-0.181,2.17-0.904,4.159-2.351,5.968c0,0-2.17,2.894-5.425,7.596
		c-3.074,4.702-7.234,11.032-11.213,18.085c-9.223,16.819-13.744,31.106-12.298,39.063c0.362,1.809,1.085,2.532,2.17,3.255
		C110.209,399.004,125.4,396.834,136.793,393.76z"/>
	<path style="fill:#BF4B6F;" d="M91.762,416.365c-7.415-4.34-12.298-11.213-13.925-20.074c-2.532-14.106,2.532-32.734,15.191-55.34
		c8.681-15.734,17.904-27.851,18.266-28.393c4.34-5.787,12.479-6.872,18.266-2.532c5.787,4.34,6.872,12.479,2.532,18.266
		c0,0.181-8.681,11.393-16.457,25.5c-9.042,16.457-13.564,30.382-12.117,37.978c0.181,1.447,0.723,1.808,1.266,2.17
		c5.968,3.436,22.425,1.266,34.723-2.713c0.904-0.181,1.808,0.181,1.989,1.085s-0.181,1.808-1.085,1.989
		c-9.404,2.894-29.117,7.234-37.436,2.532c-1.628-0.904-2.532-2.17-2.894-4.34c-1.447-8.319,3.074-22.968,12.479-40.148
		c7.957-14.287,16.638-25.861,16.638-25.861c3.255-4.34,2.351-10.489-1.808-13.744c-4.34-3.255-10.489-2.351-13.744,1.809
		c-0.362,0.543-9.404,12.479-18.085,28.031c-12.298,22.064-17.181,39.967-14.83,53.169c1.447,7.776,5.606,13.925,12.298,17.723
		c8.5,4.883,23.504,5.562,36.531,3.255c10.851-1.809,19.532-4.883,19.893-5.064c2.003-0.842,3.436-1.989,4.159-2.893
		c0.543-0.723,1.628-0.723,2.17-0.181c0.723,0.543,0.723,1.628,0.181,2.17c-0.904,1.085-1.808,1.808-3.074,2.532
		C152.166,413.834,115.839,429.119,91.762,416.365z"/>
	<path style="fill:#F490AA;" d="M164.644,374.771c0,0-14.468-0.181-23.329,12.84c1.808-5.245,5.968-11.936,15.915-16.095
		C160.123,370.43,163.559,371.877,164.644,374.771z"/>
	<path style="fill:#F490AA;" d="M171.878,386.345c-0.362,0-5.425-3.255-19.351,3.798c-0.723,0.362-1.447,0-1.808,0
		c-0.543-0.181-0.181-0.723,1.266-1.447c0.181-0.181,1.447-1.085,3.436-2.713l0,0c0.904-0.723,1.808-1.447,2.894-2.17l0,0
		c0.362-0.181,0.723-0.543,1.085-0.723c1.447-1.085,3.255-2.351,4.883-3.436c-0.362,0.723-0.723,1.266-1.266,1.808
		c0.362-0.181,0.543-0.181,0.904-0.362c2.894-1.085,6.33,0.362,7.415,3.255C171.697,384.717,171.878,385.621,171.878,386.345z"/>
	<path style="fill:#F490AA;" d="M174.048,400.451c0.181-4.702-5.968-5.968-11.032-6.149l0,0c-3.074-0.181-5.787,0.181-5.968,0.181
		l9.404-2.17l0,0l5.245-1.266c2.17,0.723,3.798,2.713,3.979,5.064C175.676,397.738,175.133,399.366,174.048,400.451z"/>
	<path style="fill:#BF4B6F;" d="M140.049,394.302h-0.181c-0.904-0.181-1.447-0.904-1.447-1.809
		c0.543-4.702,3.436-16.457,18.085-22.425c1.808-0.723,3.798-0.723,5.606,0c1.808,0.723,3.255,2.17,3.979,3.979
		c1.085,2.894,0.362,6.149-1.808,8.138c-0.723,0.543-1.628,0.543-2.17-0.181c-0.542-0.724-0.543-1.628,0.181-2.17
		c1.266-1.085,1.628-3.074,1.085-4.521c-0.362-1.085-1.266-1.808-2.17-2.17c-1.085-0.362-2.17-0.362-3.074,0
		c-13.202,5.245-15.734,15.734-16.276,19.893C141.668,394.055,140.772,394.302,140.049,394.302z"/>
	<path style="fill:#BF4B6F;" d="M149.453,393.217c-0.362,0-0.723-0.181-0.904-0.362c-0.723-0.543-0.904-1.447-0.362-2.17
		c2.532-3.436,7.415-8.319,15.191-11.393c1.808-0.723,3.798-0.723,5.606,0.181c1.808,0.723,3.074,2.17,3.798,3.979
		c1.085,3.074,0.525,5.806-2.007,7.795c-0.723,0.543-1.972,1.067-2.514,0.343c-0.543-0.723-0.362-1.628,0.362-2.17
		c1.447-1.085,1.989-3.074,1.266-4.702c-0.904-2.17-3.255-3.074-5.245-2.351c-7.234,2.713-11.574,7.053-13.744,10.308
		C150.538,393.036,149.995,393.217,149.453,393.217z"/>
	<path style="fill:#BF4B6F;" d="M148.69,413.247c-0.362,0,5.827-1.764,5.465-1.945c-0.723-0.543-1.622-1.383-1.08-1.925
		c0,0,7.59-8.383,17.175-8.926c0.723,0,1.266-0.181,1.808-0.543c1.266-0.723,1.989-2.17,1.989-3.798c0-1.085-0.543-2.17-1.447-2.894
		c-0.904-0.723-1.808-1.085-2.894-1.085c-4.702,0.362-9.223,1.808-13.564,4.521c-0.723,0.543-1.808,0.181-2.17-0.543
		c-0.543-0.723-0.181-1.808,0.543-2.17c4.883-2.894,9.947-4.521,15.01-4.883c1.989-0.181,3.798,0.543,5.245,1.809
		c1.447,1.266,2.351,3.074,2.532,5.064c0.181,2.713-1.085,5.245-3.436,6.691c-1.085,0.543-2.17,0.904-3.436,1.085
		c-8.138,0.543-15.336,7.804-15.336,7.985C154.733,411.872,149.052,413.247,148.69,413.247z"/>
	<path style="fill:#22213F;" d="M283.1,362.111c-22.968-5.968-28.031-26.766-24.776-37.074c0.723-2.351,1.989-4.159,3.617-5.064
		c9.042-5.425,13.744,5.968,29.478,10.128c15.915,3.979,25.319-3.617,30.744,5.425c0.904,1.447,1.085,3.617,0.543,6.149
		C320.535,351.984,306.61,368.079,283.1,362.111z"/>
	<path style="fill:#FFFFFF;" d="M323.248,339.686c-7.776,3.617-20.798,4.702-34.542,1.085c-13.744-3.436-24.595-10.67-29.84-17.542
		c0.723-2.351,1.447-2.532,3.074-3.436c9.042-5.425,13.744,5.968,29.478,10.128c15.915,3.979,25.319-3.617,30.744,5.425
		C323.067,336.792,323.61,337.335,323.248,339.686z"/>
	<path style="fill:#BF4B6F;" d="M293.046,365.005c-3.074,0-6.511-0.362-10.128-1.266l0,0c-13.021-3.255-19.532-11.032-22.787-16.819
		c-3.979-7.053-5.245-15.915-3.074-22.244c0.904-2.894,2.351-4.883,4.16-5.968c5.968-3.617,10.489-0.543,15.915,2.713
		c3.979,2.532,8.319,5.425,14.83,7.053c6.511,1.628,11.755,1.266,16.457,0.904c6.33-0.362,11.755-0.904,15.191,5.245
		c1.085,1.808,1.266,4.34,0.723,7.234c-1.085,5.064-5.245,13.021-13.744,18.266C306.61,362.654,300.823,365.005,293.046,365.005z
		 M266.642,320.154c-1.266,0-2.532,0.362-3.798,1.266c-1.085,0.723-2.17,2.17-2.894,4.159c-1.447,4.34-1.447,11.936,2.894,19.712
		c2.894,5.245,8.862,12.298,20.798,15.372l0,0c11.755,3.074,20.255,0,25.319-3.255c7.596-4.702,11.393-11.755,12.298-16.276
		c0.362-2.17,0.362-3.979-0.362-5.064c-2.532-4.159-5.787-4.159-12.298-3.617c-4.702,0.362-10.489,0.723-17.542-1.085
		c-7.053-1.808-11.936-4.883-15.915-7.596C271.525,321.601,268.993,320.154,266.642,320.154z"/>
	<path style="fill:#FFD56C;" d="M506.64,189.74c0,7.785-3.035,14.779-8.049,20.057c-4.618,4.75-7.917,10.82-9.633,17.154
		l-0.792,3.035h-20.717l-0.792-2.771c-0.924-3.167-2.111-6.334-3.695-9.237c-1.583-2.903-3.695-5.674-5.938-8.181
		c-0.66-0.66-1.188-1.32-1.715-1.979c-3.959-4.882-6.334-11.216-6.334-18.078c0-15.439,12.404-28.238,27.711-28.766
		c11.612-0.396,21.905,6.07,26.787,15.571C505.453,180.503,506.64,184.989,506.64,189.74z"/>
	<path style="fill:#FFCA3B;" d="M506.64,189.74c0,7.785-3.035,14.779-8.049,20.057c-4.618,4.75-7.917,10.82-9.633,17.154
		l-0.528,2.111l-0.264,0.924h-19.001c-1.452-4.355-3.431-8.445-6.202-12.008c-0.132-0.132-0.264-0.396-0.396-0.528
		c-0.792-0.924-1.583-1.979-2.507-2.903c-1.979-1.979-3.563-4.223-4.882-6.73c-2.111-3.959-3.167-8.445-3.167-13.328
		c0-15.439,12.404-28.238,27.711-28.766c9.105-0.396,17.286,3.563,22.828,9.765c0.264,0.396,0.66,0.66,0.924,1.056
		C505.453,180.503,506.64,184.989,506.64,189.74z"/>
	<path style="fill:#EAB021;" d="M506.64,189.74c0,7.785-3.035,14.779-8.049,20.057c-4.618,4.75-7.917,10.82-9.633,17.154
		l-0.528,2.111c-1.32,0.264-2.639,0.528-3.959,0.924h-15.306c-1.452-4.355-3.431-8.445-6.202-12.008
		c-0.132-0.132-0.264-0.396-0.396-0.528v-0.132c0,0,16.362,4.355,28.634-8.181c11.084-11.348,11.48-30.086,11.348-33.649
		c0.264,0.396,0.66,0.66,0.924,1.056C505.453,180.503,506.64,184.989,506.64,189.74z"/>
	<path style="fill:#E29700;" d="M488.166,231.174h-20.717c-0.528,0-0.924-0.396-1.188-0.924l-0.792-2.771
		c-1.715-6.466-5.014-12.272-9.369-16.89c-5.41-5.674-8.313-13.064-8.313-20.849c0-15.967,12.932-29.426,28.898-29.954
		c8.313-0.264,16.099,2.639,22.037,8.313c5.938,5.674,9.237,13.459,9.237,21.641c0,7.785-3.035,15.175-8.445,20.849
		c-4.355,4.618-7.653,10.293-9.369,16.758l-0.792,3.035C489.09,230.778,488.694,231.174,488.166,231.174z M468.241,228.799h19.002
		l0.528-2.111c1.847-6.73,5.278-12.8,9.897-17.682c5.014-5.146,7.785-12.008,7.785-19.266c0-7.653-3.035-14.647-8.445-19.925
		c-5.542-5.278-12.668-8.049-20.321-7.785c-14.647,0.528-26.655,12.932-26.655,27.711c0,7.258,2.771,13.987,7.653,19.266
		c4.618,4.882,8.181,11.084,10.029,17.946L468.241,228.799z"/>
	<path style="fill:#E29700;" d="M473.783,229.062c-0.66,0-1.188-0.528-1.188-1.188v-21.377c-0.132,0-0.396,0-0.528,0
		c-5.146,0-6.994-2.375-7.785-3.695c-0.924-1.847-0.66-4.091,0.528-5.806c1.056-1.452,2.771-2.243,4.618-1.979
		c4.882,0.792,5.542,6.73,5.542,9.237c1.32,0-0.528,0,3.299,0c0.66,0,1.188,0.528,1.188,1.188s-0.528,1.188-1.188,1.188l0,0
		c-3.827,0-1.979,0-3.299,0v21.377C474.839,228.535,474.311,229.062,473.783,229.062z M468.637,197.261
		c-1.056,0-1.715,0.66-1.979,1.056c-0.66,1.056-0.792,2.375-0.264,3.431c0.792,1.583,2.771,2.375,5.674,2.507
		c0.264,0,0.396,0,0.528,0c0-2.111-0.528-6.466-3.563-6.862C468.901,197.261,468.769,197.261,468.637,197.261z"/>
	<path style="fill:#E29700;" d="M482.756,229.062c-0.66,0-1.188-0.528-1.188-1.188v-21.245c0,0,0,0-0.132,0
		c-0.396,0-1.056,0-3.299,0l0,0c-0.66,0-1.188-0.528-1.188-1.188c0-0.66,0.528-1.188,1.188-1.188c2.243,0,2.903,0,3.299,0l0,0
		c0-2.375,0.66-8.577,5.542-9.237c1.847-0.264,3.563,0.396,4.618,1.979c1.188,1.583,1.452,3.827,0.528,5.674
		c-0.66,1.452-2.507,3.695-7.785,3.959c-0.264,0-0.396,0-0.66,0v21.377C483.944,228.535,483.416,229.062,482.756,229.062z
		 M487.771,197.261c-0.132,0-0.264,0-0.396,0c-3.035,0.528-3.563,4.882-3.563,6.994c0.132,0,0.396,0,0.528,0
		c2.903-0.132,5.014-1.056,5.674-2.639c0.528-1.056,0.396-2.375-0.264-3.299C489.486,197.789,488.826,197.261,487.771,197.261z"/>
	<path style="fill:#4150D8;" d="M480.249,254.53h-5.146c-4.223,0-7.653-3.431-7.653-7.653v-11.348c0-4.223,3.431-7.653,7.653-7.653
		h5.146c4.223,0,7.653,3.431,7.653,7.653v11.348C488.035,251.099,484.604,254.53,480.249,254.53z"/>
	<path style="fill:#31409B;" d="M480.249,255.717h-5.146c-4.882,0-8.841-3.959-8.841-8.841v-11.348c0-4.882,3.959-8.841,8.841-8.841
		h5.146c4.882,0,8.841,3.959,8.841,8.841v11.348C489.09,251.759,485.132,255.717,480.249,255.717z M475.103,229.062
		c-3.563,0-6.598,2.903-6.598,6.598v11.348c0,3.563,2.903,6.598,6.598,6.598h5.146c3.563,0,6.598-2.903,6.598-6.598V235.66
		c0-3.563-2.903-6.598-6.598-6.598H475.103L475.103,229.062z"/>
	<path style="fill:#4150D8;" d="M487.507,243.841H468.11c-2.771,0-5.014-2.243-5.014-5.014v-8.181c0-2.771,2.243-5.014,5.014-5.014
		h19.397c2.771,0,5.014,2.243,5.014,5.014v8.181C492.521,241.598,490.278,243.841,487.507,243.841z"/>
	<path style="fill:#31409B;" d="M487.507,245.029H468.11c-3.431,0-6.202-2.771-6.202-6.202v-8.181c0-3.431,2.771-6.202,6.202-6.202
		h19.397c3.431,0,6.202,2.771,6.202,6.202v8.181C493.709,242.258,490.938,245.029,487.507,245.029z M467.977,226.819
		c-2.111,0-3.959,1.715-3.959,3.959v8.181c0,2.111,1.715,3.959,3.959,3.959h19.397c2.111,0,3.959-1.715,3.959-3.959v-8.181
		c0-2.111-1.715-3.959-3.959-3.959H467.977z"/>
	<path style="fill:#31409B;" d="M492.521,233.549h-29.558c-0.66,0-0.396-0.528-0.396-1.188c0-0.66-0.264-1.188,0.396-1.188h29.558
		c0.66,0,0.558,0.528,0.558,1.188C493.079,233.021,493.181,233.549,492.521,233.549z"/>
	<path style="fill:#31409B;" d="M492.521,238.299h-29.558c-0.66,0-0.396-0.528-0.396-1.188c0-0.66-0.264-1.188,0.396-1.188h29.558
		c0.66,0,0.552,0.528,0.552,1.188C493.073,237.771,493.181,238.299,492.521,238.299z"/>
	<path style="fill:#FFCA3B;" d="M478.138,151.868c-2.639,0-4.618-2.111-4.618-4.618v-17.022c0-2.639,2.111-4.618,4.618-4.618
		c2.639,0,4.618,2.111,4.618,4.618v17.022C482.888,149.757,480.777,151.868,478.138,151.868z"/>
	<path style="fill:#FFCA3B;" d="M450.163,162.161c-1.188,0-2.375-0.396-3.299-1.32l-12.008-12.008c-1.847-1.847-1.847-4.75,0-6.598
		c1.847-1.847,4.75-1.847,6.598,0l12.008,12.008c1.847,1.847,1.847,4.75,0,6.598C452.538,161.633,451.351,162.161,450.163,162.161z"
		/>
	<path style="fill:#FFCA3B;" d="M506.244,162.161c-1.188,0-2.375-0.396-3.299-1.32c-1.847-1.847-1.847-4.75,0-6.598l12.008-12.008
		c1.847-1.847,4.75-1.847,6.598,0c1.847,1.847,1.847,4.75,0,6.598l-12.008,12.008C508.62,161.633,507.432,162.161,506.244,162.161z"
		/>
	<path style="fill:#E29700;" d="M478.138,153.056c-3.167,0-5.806-2.639-5.806-5.806v-17.022c0-3.167,2.639-5.806,5.806-5.806
		s5.806,2.639,5.806,5.806v17.022C484.076,150.417,481.437,153.056,478.138,153.056z M478.138,126.665
		c-1.979,0-3.563,1.583-3.563,3.563v17.022c0,1.979,1.583,3.563,3.563,3.563c1.979,0,3.563-1.583,3.563-3.563v-17.022
		C481.701,128.248,480.117,126.665,478.138,126.665z"/>
	<path style="fill:#E29700;" d="M450.163,163.349c-1.583,0-3.035-0.66-4.091-1.715l-12.007-12.009
		c-1.056-1.056-1.715-2.639-1.715-4.091c0-1.583,0.66-3.035,1.715-4.091c2.243-2.243,5.938-2.243,8.313,0l12.008,12.008
		c1.056,1.056,1.715,2.507,1.715,4.091c0,1.583-0.66,3.035-1.715,4.091C453.198,162.689,451.747,163.349,450.163,163.349z
		 M438.155,141.84c-0.924,0-1.847,0.396-2.507,1.056c-0.66,0.66-1.056,1.583-1.056,2.507s0.396,1.847,1.056,2.507l12.008,12.008
		c1.32,1.32,3.695,1.32,5.014,0c0.66-0.66,1.056-1.583,1.056-2.507s-0.396-1.847-1.056-2.507l-12.008-12.009
		C439.871,142.236,438.947,141.84,438.155,141.84z"/>
	<path style="fill:#E29700;" d="M506.244,163.349c-1.583,0-3.035-0.66-4.091-1.715c-1.056-1.056-1.715-2.639-1.715-4.091
		s0.66-3.035,1.715-4.091l12.008-12.008c2.243-2.243,5.938-2.243,8.313,0c1.056,1.056,1.715,2.507,1.715,4.091
		s-0.66,3.035-1.715,4.091l-12.008,12.008C509.279,162.689,507.828,163.349,506.244,163.349z M518.253,141.84
		c-0.924,0-1.847,0.396-2.507,1.056l-12.008,12.008c-0.66,0.66-1.056,1.583-1.056,2.507s0.396,1.847,1.056,2.507
		c1.32,1.32,3.695,1.32,5.014,0l12.008-12.008c0.66-0.66,1.056-1.583,1.056-2.507s-0.396-1.847-1.056-2.507
		C520.1,142.236,519.176,141.84,518.253,141.84z"/>
	<path style="fill:#ACBFE5;" d="M454.903,418.228c-0.047,0-0.074,0-0.083,0c-0.828-0.016-1.486-0.698-1.472-1.526
		c0.016-0.828,0.694-1.438,1.525-1.474c0.334-0.02,37.037,0.222,51.698-35.42c0.316-0.766,1.191-1.133,1.958-0.816
		c0.767,0.314,1.132,1.191,0.816,1.957C494.243,417.665,456.934,418.228,454.903,418.228z"/>
	<path style="fill:#ACBFE5;" d="M490.508,423.13c-0.616,0-1.193-0.383-1.412-0.996c-0.278-0.779,0.129-1.638,0.908-1.917
		c0.141-0.05,14.16-5.212,20.943-19.699c0.352-0.75,1.245-1.075,1.994-0.723c0.751,0.352,1.074,1.244,0.723,1.994
		c-7.33,15.656-22.031,21.033-22.653,21.254C490.845,423.103,490.675,423.13,490.508,423.13z"/>
</g>
</svg>
