<?xml version="1.0" encoding="utf-8"?>
<!-- Generator: Adobe Illustrator 27.5.0, SVG Export Plug-In . SVG Version: 6.00 Build 0)  -->
<svg version="1.1" xmlns="http://www.w3.org/2000/svg" xmlns:xlink="http://www.w3.org/1999/xlink" x="0px" y="0px"
	 viewBox="500 3600 350 1100" xml:space="preserve">

<g id="Isolation_Mode">
	<g>
		<path style="fill:#F7941D;" d="M1156.863,4129.297c0,53.658-8.622,105.295-24.569,153.613
			c-45.721,138.587-151.63,249.822-286.787,302.734c-55.324,21.68-115.56,33.572-178.563,33.572
			c-270.582,0-489.919-219.35-489.919-489.92s219.337-489.919,489.919-489.919
			C937.514,3639.378,1156.863,3858.727,1156.863,4129.297z"/>
		<path style="fill:#FFFFFF;" d="M924.449,4098.041c-0.375-1.637-0.774-3.264-1.224-4.875c-0.15-0.6-0.313-1.2-0.5-1.787
			c-0.513-1.836-1.075-3.674-1.675-5.486c-1.863-5.649-4.112-11.174-6.712-16.535c-0.637-1.35-1.324-2.688-2.012-4.012
			c-0.312-0.586-0.638-1.188-0.963-1.773c-0.899-1.677-1.849-3.338-2.836-4.975c-1.738-2.887-3.575-5.711-5.524-8.475
			c-1.937-2.748-3.975-5.437-6.136-8.061c-2.875-3.5-5.937-6.875-9.187-10.123c-0.012-0.013-0.012-0.013-0.025-0.025l-67.264-67.264
			l-22.708-22.708l-44.542-44.542c-15.648-15.646-36.432-24.259-58.553-24.259c-22.107,0-42.905,8.612-58.54,24.259
			c-15.635,15.635-24.246,36.418-24.246,58.54c0,22.108,8.611,42.905,24.246,58.539l28.209,28.208l3.811,3.812H488.688
			c-45.654,0-82.798,37.144-82.798,82.798c0,32.32,18.609,60.363,45.667,73.988l0.014,0.012c5.586,2.812,11.534,5.012,17.745,6.498
			c3.113,0.764,6.287,1.337,9.512,1.713c0.813,0.1,1.625,0.188,2.438,0.249c0.711,0.077,1.424,0.126,2.136,0.163
			c0.962,0.063,1.925,0.113,2.887,0.137c0.801,0.026,1.6,0.039,2.399,0.039h179.381l-32.019,32.02
			c-15.635,15.635-24.258,36.418-24.258,58.539c0,22.107,8.624,42.904,24.258,58.539c15.634,15.648,36.432,24.259,58.54,24.259
			c22.121,0,42.905-8.624,58.553-24.259l134.514-134.514c25.971-25.971,40.293-60.502,40.344-97.232v-0.3
			C927.985,4118.548,926.786,4108.125,924.449,4098.041z M893.18,4129.297c0,0.012,0,0.026,0,0.026
			c-0.013,27.481-10.711,53.302-30.146,72.735l-134.514,134.516c-9.06,9.061-21.108,14.061-33.932,14.061
			c-12.81,0-24.857-5-33.918-14.061c-9.062-9.062-14.048-21.109-14.048-33.92s4.987-24.859,14.048-33.92l61.74-61.738
			c4.974-4.985,6.461-12.473,3.773-18.972c-2.7-6.511-9.048-10.749-16.084-10.749H488.688c-0.874,0-1.725-0.024-2.587-0.074
			c-25.258-1.35-45.392-22.321-45.392-47.904c0-26.457,21.521-47.979,47.979-47.979H710.1c7.036,0,13.384-4.238,16.084-10.748
			c2.688-6.5,1.2-13.986-3.773-18.972l-30.095-30.095l-31.645-31.645c-9.062-9.061-14.048-21.108-14.048-33.919
			c0-12.812,4.987-24.859,14.048-33.921c9.061-9.061,21.108-14.06,33.918-14.06c12.824,0,24.871,4.999,33.932,14.06l41.105,41.107
			l93.408,93.408c19.435,19.434,30.133,45.254,30.146,72.736C893.18,4129.271,893.18,4129.285,893.18,4129.297z"/>
		<g>
			<polygon style="fill:#9E1F63;" points="664.253,4042.688 659.202,4046.503 668.067,4046.503 			"/>
			<polygon style="fill:#9E1F63;" points="820.397,3964.655 797.685,3941.941 797.685,3941.941 			"/>
		</g>
	</g>
	
</g>
</svg>
