<?xml version="1.0" encoding="utf-8"?>
<!-- Generator: Adobe Illustrator 27.5.0, SVG Export Plug-In . SVG Version: 6.00 Build 0)  -->
<svg version="1.1" xmlns="http://www.w3.org/2000/svg" xmlns:xlink="http://www.w3.org/1999/xlink" x="0px" y="0px"
	 viewBox="332 45 120 120" xml:space="preserve">

<g id="OBJECTS">
	<g>
		
			<linearGradient id="SVGID_00000040565473329330933210000008648658449743763092_" gradientUnits="userSpaceOnUse" x1="362.0151" y1="43.0844" x2="410.8905" y2="143.7113">
			<stop  offset="0" style="stop-color:#FFAF00"/>
			<stop  offset="1" style="stop-color:#FFE64B"/>
		</linearGradient>
		<path style="fill:url(#SVGID_00000040565473329330933210000008648658449743763092_);" d="M392.421,50.323
			c11.733,0,21.839,32.115,21.839,32.115s33.707-0.573,37.225,10.796c3.517,11.369-22.742,30.02-22.742,30.02
			s9.307,31.639,0.182,39.414c-9.123,7.774-36.503-12.106-36.503-12.106s-27.375,18.672-36.503,12.106
			c-9.129-6.566-2.937-39.161-2.937-39.161s-23.28-18.173-19.626-30.273c3.656-12.098,35.272-11.123,35.272-11.123
			S380.688,50.323,392.421,50.323z"/>
		
			<linearGradient id="SVGID_00000083087488590901578580000011978223523576912007_" gradientUnits="userSpaceOnUse" x1="351.352" y1="75.5035" x2="426.1041" y2="145.2238">
			<stop  offset="0" style="stop-color:#FFFFFF"/>
			<stop  offset="1" style="stop-color:#FFFFFF;stop-opacity:0"/>
		</linearGradient>
		<path style="opacity:0.81;fill:url(#SVGID_00000083087488590901578580000011978223523576912007_);" d="M415.059,85.668
			c-0.467,0-0.73,0.004-0.745,0.004l-2.415,0.04l-0.725-2.304c-3.787-12.039-12.367-29.852-18.753-29.852
			c-6.544,0-16.085,17.369-20.77,29.702l-0.819,2.156l-2.304-0.07c-0.026-0.002-0.598-0.019-1.573-0.019
			c-13.853,0-28.657,2.735-30.502,8.842c-2.191,7.254,10.196,20.283,18.52,26.79l1.555,1.215l-0.368,1.937
			c-0.916,4.82-1.64,10.626-1.903,16.177c34.95-1.198,64.285-23.399,74.617-53.809C424.463,85.942,419.711,85.668,415.059,85.668z"
			/>
	</g>
</g>

</svg>
